<svg width="20" height="16" viewBox="0 0 20 16" fill="none" xmlns="http://www.w3.org/2000/svg">
<path d="M9.99998 0.5L0.833313 7.5L1.84165 8.825L3.33331 7.68333V15.5H16.6666V7.68333L18.1583 8.81667L19.1666 7.5L9.99998 0.5ZM15 13.8333H4.99998V6.41667L9.99998 2.6L15 6.41667V13.8333ZM7.49998 9.66667C7.49998 10.125 7.12498 10.5 6.66665 10.5C6.20831 10.5 5.83331 10.125 5.83331 9.66667C5.83331 9.20833 6.20831 8.83333 6.66665 8.83333C7.12498 8.83333 7.49998 9.20833 7.49998 9.66667ZM9.99998 8.83333C10.4583 8.83333 10.8333 9.20833 10.8333 9.66667C10.8333 10.125 10.4583 10.5 9.99998 10.5C9.54165 10.5 9.16665 10.125 9.16665 9.66667C9.16665 9.20833 9.54165 8.83333 9.99998 8.83333ZM12.5 9.66667C12.5 9.20833 12.875 8.83333 13.3333 8.83333C13.7916 8.83333 14.1666 9.20833 14.1666 9.66667C14.1666 10.125 13.7916 10.5 13.3333 10.5C12.875 10.5 12.5 10.125 12.5 9.66667Z" fill="black"/>
</svg>
