<svg width="201" height="146" viewBox="0 0 201 146" fill="none" xmlns="http://www.w3.org/2000/svg">
<path d="M20 111C21.9984 113.406 24.1599 115.667 26.4687 117.766L194.531 118C196.84 115.9 199.002 113.64 201 111.234L20 111Z" fill="#3F3D56"/>
<path d="M126.562 87.1501V109.016C126.562 109.294 126.673 109.562 126.87 109.759C127.068 109.956 127.335 110.066 127.614 110.067H160.059C160.338 110.066 160.605 109.956 160.802 109.759C161 109.562 161.111 109.294 161.111 109.016V87.1501C161.11 86.8717 160.999 86.6049 160.802 86.4082C160.605 86.2114 160.337 86.1007 160.059 86.1004H127.614C127.335 86.1007 127.068 86.2114 126.871 86.4082C126.674 86.6049 126.563 86.8717 126.562 87.1501Z" fill="#3F3D56"/>
<path d="M127.323 87.4222V108.746C127.323 108.895 127.383 109.038 127.488 109.143C127.593 109.248 127.736 109.307 127.885 109.308H159.788C159.938 109.307 160.08 109.248 160.186 109.143C160.291 109.038 160.351 108.895 160.351 108.746V87.4222C160.351 87.2731 160.292 87.1302 160.186 87.0246C160.081 86.9191 159.938 86.8597 159.788 86.8594H127.885C127.736 86.8597 127.593 86.9191 127.488 87.0246C127.382 87.1302 127.323 87.2731 127.323 87.4222Z" fill="#04C0ED"/>
<path d="M125.883 113.28C125.943 113.355 126.018 113.415 126.104 113.456C126.19 113.497 126.285 113.518 126.38 113.517H161.12C161.215 113.517 161.309 113.496 161.395 113.455C161.48 113.414 161.556 113.355 161.616 113.281C161.676 113.207 161.718 113.121 161.741 113.029C161.763 112.937 161.765 112.841 161.745 112.748L161.206 110.19C161.183 110.085 161.135 109.988 161.066 109.907C160.996 109.826 160.908 109.764 160.808 109.726C160.735 109.698 160.659 109.683 160.581 109.683H126.917C126.839 109.683 126.762 109.698 126.69 109.726C126.59 109.764 126.502 109.826 126.432 109.907C126.363 109.988 126.314 110.085 126.292 110.19L125.753 112.748C125.734 112.841 125.735 112.937 125.758 113.029C125.781 113.121 125.823 113.207 125.883 113.28Z" fill="#2F2E41"/>
<path d="M159.389 110.785H160.209C160.278 110.785 160.334 110.729 160.334 110.661V110.268C160.334 110.2 160.278 110.144 160.209 110.144H159.389C159.32 110.144 159.264 110.2 159.264 110.268V110.661C159.264 110.729 159.32 110.785 159.389 110.785Z" fill="#3F3D56"/>
<path d="M157.249 110.785H158.069C158.138 110.785 158.194 110.729 158.194 110.661V110.268C158.194 110.2 158.138 110.144 158.069 110.144H157.249C157.18 110.144 157.124 110.2 157.124 110.268V110.661C157.124 110.729 157.18 110.785 157.249 110.785Z" fill="#3F3D56"/>
<path d="M155.109 110.785H155.929C155.998 110.785 156.054 110.729 156.054 110.661V110.268C156.054 110.2 155.998 110.144 155.929 110.144H155.109C155.04 110.144 154.984 110.2 154.984 110.268V110.661C154.984 110.729 155.04 110.785 155.109 110.785Z" fill="#3F3D56"/>
<path d="M152.969 110.785H153.789C153.858 110.785 153.914 110.729 153.914 110.661V110.268C153.914 110.2 153.858 110.144 153.789 110.144H152.969C152.9 110.144 152.844 110.2 152.844 110.268V110.661C152.844 110.729 152.9 110.785 152.969 110.785Z" fill="#3F3D56"/>
<path d="M150.829 110.785H151.649C151.718 110.785 151.774 110.729 151.774 110.661V110.268C151.774 110.2 151.718 110.144 151.649 110.144H150.829C150.76 110.144 150.704 110.2 150.704 110.268V110.661C150.704 110.729 150.76 110.785 150.829 110.785Z" fill="#3F3D56"/>
<path d="M148.689 110.785H149.51C149.578 110.785 149.634 110.729 149.634 110.661V110.268C149.634 110.2 149.578 110.144 149.51 110.144H148.689C148.62 110.144 148.564 110.2 148.564 110.268V110.661C148.564 110.729 148.62 110.785 148.689 110.785Z" fill="#3F3D56"/>
<path d="M146.549 110.785H147.37C147.438 110.785 147.494 110.729 147.494 110.661V110.268C147.494 110.2 147.438 110.144 147.37 110.144H146.549C146.48 110.144 146.424 110.2 146.424 110.268V110.661C146.424 110.729 146.48 110.785 146.549 110.785Z" fill="#3F3D56"/>
<path d="M144.409 110.785H145.23C145.298 110.785 145.354 110.729 145.354 110.661V110.268C145.354 110.2 145.298 110.144 145.23 110.144H144.409C144.34 110.144 144.284 110.2 144.284 110.268V110.661C144.284 110.729 144.34 110.785 144.409 110.785Z" fill="#3F3D56"/>
<path d="M142.269 110.785H143.09C143.159 110.785 143.214 110.729 143.214 110.661V110.268C143.214 110.2 143.159 110.144 143.09 110.144H142.269C142.2 110.144 142.144 110.2 142.144 110.268V110.661C142.144 110.729 142.2 110.785 142.269 110.785Z" fill="#3F3D56"/>
<path d="M140.129 110.785H140.95C141.018 110.785 141.074 110.729 141.074 110.661V110.268C141.074 110.2 141.018 110.144 140.95 110.144H140.129C140.06 110.144 140.004 110.2 140.004 110.268V110.661C140.004 110.729 140.06 110.785 140.129 110.785Z" fill="#3F3D56"/>
<path d="M137.989 110.785H138.81C138.878 110.785 138.934 110.729 138.934 110.661V110.268C138.934 110.2 138.878 110.144 138.81 110.144H137.989C137.92 110.144 137.864 110.2 137.864 110.268V110.661C137.864 110.729 137.92 110.785 137.989 110.785Z" fill="#3F3D56"/>
<path d="M135.849 110.785H136.67C136.739 110.785 136.794 110.729 136.794 110.661V110.268C136.794 110.2 136.739 110.144 136.67 110.144H135.849C135.78 110.144 135.724 110.2 135.724 110.268V110.661C135.724 110.729 135.78 110.785 135.849 110.785Z" fill="#3F3D56"/>
<path d="M133.709 110.785H134.53C134.599 110.785 134.654 110.729 134.654 110.661V110.268C134.654 110.2 134.599 110.144 134.53 110.144H133.709C133.64 110.144 133.584 110.2 133.584 110.268V110.661C133.584 110.729 133.64 110.785 133.709 110.785Z" fill="#3F3D56"/>
<path d="M131.569 110.785H132.39C132.459 110.785 132.515 110.729 132.515 110.661V110.268C132.515 110.2 132.459 110.144 132.39 110.144H131.569C131.5 110.144 131.445 110.2 131.445 110.268V110.661C131.445 110.729 131.5 110.785 131.569 110.785Z" fill="#3F3D56"/>
<path d="M129.429 110.785H130.25C130.319 110.785 130.375 110.729 130.375 110.661V110.268C130.375 110.2 130.319 110.144 130.25 110.144H129.429C129.36 110.144 129.305 110.2 129.305 110.268V110.661C129.305 110.729 129.36 110.785 129.429 110.785Z" fill="#3F3D56"/>
<path d="M127.289 110.785H128.11C128.179 110.785 128.234 110.729 128.234 110.661V110.268C128.234 110.2 128.179 110.144 128.11 110.144H127.289C127.22 110.144 127.165 110.2 127.165 110.268V110.661C127.165 110.729 127.22 110.785 127.289 110.785Z" fill="#3F3D56"/>
<path d="M159.414 111.854H160.235C160.304 111.854 160.359 111.798 160.359 111.729V111.337C160.359 111.268 160.304 111.213 160.235 111.213H159.414C159.345 111.213 159.289 111.268 159.289 111.337V111.729C159.289 111.798 159.345 111.854 159.414 111.854Z" fill="#3F3D56"/>
<path d="M157.274 111.854H158.095C158.164 111.854 158.219 111.798 158.219 111.729V111.337C158.219 111.268 158.164 111.213 158.095 111.213H157.274C157.205 111.213 157.149 111.268 157.149 111.337V111.729C157.149 111.798 157.205 111.854 157.274 111.854Z" fill="#3F3D56"/>
<path d="M155.134 111.854H155.955C156.024 111.854 156.079 111.798 156.079 111.729V111.337C156.079 111.268 156.024 111.213 155.955 111.213H155.134C155.065 111.213 155.009 111.268 155.009 111.337V111.729C155.009 111.798 155.065 111.854 155.134 111.854Z" fill="#3F3D56"/>
<path d="M152.994 111.854H153.815C153.884 111.854 153.939 111.798 153.939 111.729V111.337C153.939 111.268 153.884 111.213 153.815 111.213H152.994C152.925 111.213 152.869 111.268 152.869 111.337V111.729C152.869 111.798 152.925 111.854 152.994 111.854Z" fill="#3F3D56"/>
<path d="M150.854 111.854H151.675C151.744 111.854 151.8 111.798 151.8 111.729V111.337C151.8 111.268 151.744 111.213 151.675 111.213H150.854C150.785 111.213 150.73 111.268 150.73 111.337V111.729C150.73 111.798 150.785 111.854 150.854 111.854Z" fill="#3F3D56"/>
<path d="M148.714 111.854H149.535C149.604 111.854 149.66 111.798 149.66 111.729V111.337C149.66 111.268 149.604 111.213 149.535 111.213H148.714C148.645 111.213 148.59 111.268 148.59 111.337V111.729C148.59 111.798 148.645 111.854 148.714 111.854Z" fill="#3F3D56"/>
<path d="M146.574 111.854H147.395C147.464 111.854 147.52 111.798 147.52 111.729V111.337C147.52 111.268 147.464 111.213 147.395 111.213H146.574C146.505 111.213 146.45 111.268 146.45 111.337V111.729C146.45 111.798 146.505 111.854 146.574 111.854Z" fill="#3F3D56"/>
<path d="M144.434 111.854H145.255C145.324 111.854 145.38 111.798 145.38 111.729V111.337C145.38 111.268 145.324 111.213 145.255 111.213H144.434C144.365 111.213 144.31 111.268 144.31 111.337V111.729C144.31 111.798 144.365 111.854 144.434 111.854Z" fill="#3F3D56"/>
<path d="M142.294 111.854H143.115C143.184 111.854 143.24 111.798 143.24 111.729V111.337C143.24 111.268 143.184 111.213 143.115 111.213H142.294C142.225 111.213 142.17 111.268 142.17 111.337V111.729C142.17 111.798 142.225 111.854 142.294 111.854Z" fill="#3F3D56"/>
<path d="M140.154 111.854H140.975C141.044 111.854 141.1 111.798 141.1 111.729V111.337C141.1 111.268 141.044 111.213 140.975 111.213H140.154C140.085 111.213 140.03 111.268 140.03 111.337V111.729C140.03 111.798 140.085 111.854 140.154 111.854Z" fill="#3F3D56"/>
<path d="M138.014 111.854H138.835C138.904 111.854 138.96 111.798 138.96 111.729V111.337C138.96 111.268 138.904 111.213 138.835 111.213H138.014C137.946 111.213 137.89 111.268 137.89 111.337V111.729C137.89 111.798 137.946 111.854 138.014 111.854Z" fill="#3F3D56"/>
<path d="M135.874 111.854H136.695C136.764 111.854 136.82 111.798 136.82 111.729V111.337C136.82 111.268 136.764 111.213 136.695 111.213H135.874C135.806 111.213 135.75 111.268 135.75 111.337V111.729C135.75 111.798 135.806 111.854 135.874 111.854Z" fill="#3F3D56"/>
<path d="M133.734 111.854H134.555C134.624 111.854 134.68 111.798 134.68 111.729V111.337C134.68 111.268 134.624 111.213 134.555 111.213H133.734C133.666 111.213 133.61 111.268 133.61 111.337V111.729C133.61 111.798 133.666 111.854 133.734 111.854Z" fill="#3F3D56"/>
<path d="M131.595 111.854H132.415C132.484 111.854 132.54 111.798 132.54 111.729V111.337C132.54 111.268 132.484 111.213 132.415 111.213H131.595C131.526 111.213 131.47 111.268 131.47 111.337V111.729C131.47 111.798 131.526 111.854 131.595 111.854Z" fill="#3F3D56"/>
<path d="M129.455 111.854H130.275C130.344 111.854 130.4 111.798 130.4 111.729V111.337C130.4 111.268 130.344 111.213 130.275 111.213H129.455C129.386 111.213 129.33 111.268 129.33 111.337V111.729C129.33 111.798 129.386 111.854 129.455 111.854Z" fill="#3F3D56"/>
<path d="M127.314 111.854H128.135C128.204 111.854 128.26 111.798 128.26 111.729V111.337C128.26 111.268 128.204 111.213 128.135 111.213H127.314C127.246 111.213 127.19 111.268 127.19 111.337V111.729C127.19 111.798 127.246 111.854 127.314 111.854Z" fill="#3F3D56"/>
<path d="M141.652 113.136H149.963C150.032 113.136 150.088 113.08 150.088 113.011V112.619C150.088 112.551 150.032 112.495 149.963 112.495H141.652C141.583 112.495 141.528 112.551 141.528 112.619V113.011C141.528 113.08 141.583 113.136 141.652 113.136Z" fill="#3F3D56"/>
<path d="M132.848 91.5245H132.121C131.901 91.5245 131.722 91.7028 131.722 91.9228C131.722 92.1428 131.901 92.3211 132.121 92.3211H132.848C133.068 92.3211 133.246 92.1428 133.246 91.9228C133.246 91.7028 133.068 91.5245 132.848 91.5245Z" fill="white"/>
<path d="M141.156 91.5245H140.43C140.209 91.5245 140.031 91.7028 140.031 91.9228C140.031 92.1428 140.209 92.3211 140.43 92.3211H141.156C141.376 92.3211 141.555 92.1428 141.555 91.9228C141.555 91.7028 141.376 91.5245 141.156 91.5245Z" fill="white"/>
<path d="M143.51 91.5245H142.784C142.563 91.5245 142.385 91.7028 142.385 91.9228C142.385 92.1428 142.563 92.3211 142.784 92.3211H143.51C143.73 92.3211 143.909 92.1428 143.909 91.9228C143.909 91.7028 143.73 91.5245 143.51 91.5245Z" fill="white"/>
<path d="M138.896 91.4581H134.381C134.161 91.4581 133.982 91.6364 133.982 91.8564C133.982 92.0764 134.161 92.2547 134.381 92.2547H138.896C139.116 92.2547 139.295 92.0764 139.295 91.8564C139.295 91.6364 139.116 91.4581 138.896 91.4581Z" fill="white"/>
<path d="M149.974 91.4581H145.459C145.239 91.4581 145.06 91.6364 145.06 91.8564C145.06 92.0764 145.239 92.2547 145.459 92.2547H149.974C150.194 92.2547 150.373 92.0764 150.373 91.8564C150.373 91.6364 150.194 91.4581 149.974 91.4581Z" fill="white"/>
<path d="M135.063 93.3223H134.337C134.117 93.3223 133.938 93.5006 133.938 93.7206C133.938 93.9406 134.117 94.1189 134.337 94.1189H135.063C135.283 94.1189 135.462 93.9406 135.462 93.7206C135.462 93.5006 135.283 93.3223 135.063 93.3223Z" fill="white"/>
<path d="M143.371 93.3223H142.645C142.425 93.3223 142.246 93.5006 142.246 93.7206C142.246 93.9406 142.425 94.1189 142.645 94.1189H143.371C143.592 94.1189 143.77 93.9406 143.77 93.7206C143.77 93.5006 143.592 93.3223 143.371 93.3223Z" fill="white"/>
<path d="M145.726 93.3223H144.999C144.779 93.3223 144.6 93.5006 144.6 93.7206C144.6 93.9406 144.779 94.1189 144.999 94.1189H145.726C145.946 94.1189 146.124 93.9406 146.124 93.7206C146.124 93.5006 145.946 93.3223 145.726 93.3223Z" fill="white"/>
<path d="M141.112 93.2559H136.597C136.376 93.2559 136.198 93.4342 136.198 93.6542C136.198 93.8742 136.376 94.0525 136.597 94.0525H141.112C141.332 94.0525 141.51 93.8742 141.51 93.6542C141.51 93.4342 141.332 93.2559 141.112 93.2559Z" fill="white"/>
<path d="M152.189 93.2559H147.674C147.454 93.2559 147.276 93.4342 147.276 93.6542C147.276 93.8742 147.454 94.0525 147.674 94.0525H152.189C152.41 94.0525 152.588 93.8742 152.588 93.6542C152.588 93.4342 152.41 93.2559 152.189 93.2559Z" fill="white"/>
<path d="M137.279 95.1201H136.552C136.332 95.1201 136.154 95.2985 136.154 95.5184C136.154 95.7384 136.332 95.9167 136.552 95.9167H137.279C137.499 95.9167 137.678 95.7384 137.678 95.5184C137.678 95.2985 137.499 95.1201 137.279 95.1201Z" fill="white"/>
<path d="M145.587 95.1201H144.861C144.64 95.1201 144.462 95.2985 144.462 95.5184C144.462 95.7384 144.64 95.9167 144.861 95.9167H145.587C145.807 95.9167 145.986 95.7384 145.986 95.5184C145.986 95.2985 145.807 95.1201 145.587 95.1201Z" fill="white"/>
<path d="M147.941 95.1201H147.215C146.994 95.1201 146.816 95.2985 146.816 95.5184C146.816 95.7384 146.994 95.9167 147.215 95.9167H147.941C148.161 95.9167 148.34 95.7384 148.34 95.5184C148.34 95.2985 148.161 95.1201 147.941 95.1201Z" fill="white"/>
<path d="M143.327 95.0537H138.812C138.592 95.0537 138.413 95.2321 138.413 95.452C138.413 95.672 138.592 95.8503 138.812 95.8503H143.327C143.547 95.8503 143.726 95.672 143.726 95.452C143.726 95.2321 143.547 95.0537 143.327 95.0537Z" fill="white"/>
<path d="M154.405 95.0537H149.89C149.67 95.0537 149.491 95.2321 149.491 95.452C149.491 95.672 149.67 95.8503 149.89 95.8503H154.405C154.625 95.8503 154.804 95.672 154.804 95.452C154.804 95.2321 154.625 95.0537 154.405 95.0537Z" fill="white"/>
<path d="M139.494 96.918H138.768C138.548 96.918 138.369 97.0963 138.369 97.3162C138.369 97.5362 138.548 97.7145 138.768 97.7145H139.494C139.715 97.7145 139.893 97.5362 139.893 97.3162C139.893 97.0963 139.715 96.918 139.494 96.918Z" fill="white"/>
<path d="M147.803 96.918H147.076C146.856 96.918 146.677 97.0963 146.677 97.3162C146.677 97.5362 146.856 97.7145 147.076 97.7145H147.803C148.023 97.7145 148.201 97.5362 148.201 97.3162C148.201 97.0963 148.023 96.918 147.803 96.918Z" fill="white"/>
<path d="M150.157 96.918H149.43C149.21 96.918 149.031 97.0963 149.031 97.3162C149.031 97.5362 149.21 97.7145 149.43 97.7145H150.157C150.377 97.7145 150.555 97.5362 150.555 97.3162C150.555 97.0963 150.377 96.918 150.157 96.918Z" fill="white"/>
<path d="M145.543 96.8515H141.028C140.807 96.8515 140.629 97.0299 140.629 97.2498C140.629 97.4698 140.807 97.6481 141.028 97.6481H145.543C145.763 97.6481 145.941 97.4698 145.941 97.2498C145.941 97.0299 145.763 96.8515 145.543 96.8515Z" fill="white"/>
<path d="M141.156 104.067H140.43C140.209 104.067 140.031 104.245 140.031 104.465C140.031 104.685 140.209 104.863 140.43 104.863H141.156C141.376 104.863 141.555 104.685 141.555 104.465C141.555 104.245 141.376 104.067 141.156 104.067Z" fill="white"/>
<path d="M143.51 104.067H142.784C142.563 104.067 142.385 104.245 142.385 104.465C142.385 104.685 142.563 104.863 142.784 104.863H143.51C143.73 104.863 143.909 104.685 143.909 104.465C143.909 104.245 143.73 104.067 143.51 104.067Z" fill="white"/>
<path d="M149.974 104.133H145.459C145.239 104.133 145.06 104.312 145.06 104.531C145.06 104.751 145.239 104.93 145.459 104.93H149.974C150.194 104.93 150.373 104.751 150.373 104.531C150.373 104.312 150.194 104.133 149.974 104.133Z" fill="white"/>
<path d="M132.848 104.067H132.121C131.901 104.067 131.722 104.245 131.722 104.465C131.722 104.685 131.901 104.863 132.121 104.863H132.848C133.068 104.863 133.246 104.685 133.246 104.465C133.246 104.245 133.068 104.067 132.848 104.067Z" fill="white"/>
<path d="M138.896 104.133H134.381C134.161 104.133 133.982 104.312 133.982 104.531C133.982 104.751 134.161 104.93 134.381 104.93H138.896C139.116 104.93 139.295 104.751 139.295 104.531C139.295 104.312 139.116 104.133 138.896 104.133Z" fill="white"/>
<path d="M135.063 102.269H134.337C134.117 102.269 133.938 102.447 133.938 102.667C133.938 102.887 134.117 103.066 134.337 103.066H135.063C135.283 103.066 135.462 102.887 135.462 102.667C135.462 102.447 135.283 102.269 135.063 102.269Z" fill="white"/>
<path d="M143.371 102.269H142.645C142.425 102.269 142.246 102.447 142.246 102.667C142.246 102.887 142.425 103.066 142.645 103.066H143.371C143.592 103.066 143.77 102.887 143.77 102.667C143.77 102.447 143.592 102.269 143.371 102.269Z" fill="white"/>
<path d="M145.726 102.269H144.999C144.779 102.269 144.6 102.447 144.6 102.667C144.6 102.887 144.779 103.066 144.999 103.066H145.726C145.946 103.066 146.124 102.887 146.124 102.667C146.124 102.447 145.946 102.269 145.726 102.269Z" fill="white"/>
<path d="M141.112 102.335H136.597C136.376 102.335 136.198 102.514 136.198 102.734C136.198 102.954 136.376 103.132 136.597 103.132H141.112C141.332 103.132 141.51 102.954 141.51 102.734C141.51 102.514 141.332 102.335 141.112 102.335Z" fill="white"/>
<path d="M137.279 100.471H136.552C136.332 100.471 136.154 100.65 136.154 100.869C136.154 101.089 136.332 101.268 136.552 101.268H137.279C137.499 101.268 137.678 101.089 137.678 100.869C137.678 100.65 137.499 100.471 137.279 100.471Z" fill="white"/>
<path d="M145.587 100.471H144.861C144.64 100.471 144.462 100.65 144.462 100.869C144.462 101.089 144.64 101.268 144.861 101.268H145.587C145.807 101.268 145.986 101.089 145.986 100.869C145.986 100.65 145.807 100.471 145.587 100.471Z" fill="white"/>
<path d="M147.941 100.471H147.215C146.994 100.471 146.816 100.65 146.816 100.869C146.816 101.089 146.994 101.268 147.215 101.268H147.941C148.161 101.268 148.34 101.089 148.34 100.869C148.34 100.65 148.161 100.471 147.941 100.471Z" fill="white"/>
<path d="M143.327 100.538H138.812C138.592 100.538 138.413 100.716 138.413 100.936C138.413 101.156 138.592 101.334 138.812 101.334H143.327C143.547 101.334 143.726 101.156 143.726 100.936C143.726 100.716 143.547 100.538 143.327 100.538Z" fill="white"/>
<path d="M139.494 98.6734H138.768C138.548 98.6734 138.369 98.8517 138.369 99.0717C138.369 99.2916 138.548 99.4699 138.768 99.4699H139.494C139.715 99.4699 139.893 99.2916 139.893 99.0717C139.893 98.8517 139.715 98.6734 139.494 98.6734Z" fill="white"/>
<path d="M147.803 98.6734H147.076C146.856 98.6734 146.677 98.8517 146.677 99.0717C146.677 99.2916 146.856 99.4699 147.076 99.4699H147.803C148.023 99.4699 148.201 99.2916 148.201 99.0717C148.201 98.8517 148.023 98.6734 147.803 98.6734Z" fill="white"/>
<path d="M150.157 98.6734H149.43C149.21 98.6734 149.031 98.8517 149.031 99.0717C149.031 99.2916 149.21 99.4699 149.43 99.4699H150.157C150.377 99.4699 150.555 99.2916 150.555 99.0717C150.555 98.8517 150.377 98.6734 150.157 98.6734Z" fill="white"/>
<path d="M145.543 98.7398H141.028C140.807 98.7398 140.629 98.9181 140.629 99.1381C140.629 99.358 140.807 99.5363 141.028 99.5363H145.543C145.763 99.5363 145.941 99.358 145.941 99.1381C145.941 98.9181 145.763 98.7398 145.543 98.7398Z" fill="white"/>
<path d="M128.985 125.136L125.575 119.753L136.279 111.231L140.698 106.342C141.272 105.707 142.003 105.234 142.817 104.969C143.632 104.704 144.502 104.658 145.34 104.834C146.178 105.01 146.956 105.403 147.594 105.974C148.233 106.544 148.71 107.272 148.979 108.084C149.377 109.288 149.292 110.599 148.74 111.741C148.189 112.883 147.215 113.767 146.023 114.205L139.037 116.776L128.985 125.136Z" fill="#FFB6B6"/>
<path d="M48.9689 86.1014V112.268H67.3236V86.1014C67.3239 85.9132 67.2638 85.7299 67.152 85.5783C67.0403 85.4268 66.8829 85.315 66.7028 85.2595C66.618 85.2315 66.5291 85.2177 66.4397 85.2187H49.8553C49.7391 85.2184 49.6239 85.2411 49.5164 85.2853C49.4089 85.3296 49.3112 85.3946 49.2289 85.4766C49.1466 85.5585 49.0812 85.6559 49.0366 85.7631C48.992 85.8703 48.969 85.9853 48.9689 86.1014ZM56.1319 95.0922C56.1367 94.5763 56.3453 94.0832 56.7122 93.7202C57.0791 93.3571 57.5748 93.1534 58.0913 93.1534C58.6078 93.1534 59.1035 93.3571 59.4704 93.7202C59.8373 94.0832 60.0459 94.5763 60.0507 95.0922V98.1282C60.048 98.6455 59.8404 99.1407 59.4733 99.5055C59.1061 99.8703 58.6092 100.075 58.0913 100.075C57.5734 100.075 57.0765 99.8703 56.7093 99.5055C56.3422 99.1407 56.1346 98.6455 56.1319 98.1282V95.0922Z" fill="#2F2E41"/>
<path d="M48.9127 111.431V113.954C48.9131 114.085 48.9651 114.21 49.0574 114.303C49.1497 114.395 49.2749 114.448 49.4058 114.449H66.8868C67.0178 114.448 67.1432 114.396 67.2356 114.303C67.328 114.21 67.3799 114.085 67.3798 113.954V111.431H48.9127Z" fill="#3F3D56"/>
<path d="M20.0944 46.6788V94.4544C20.0948 95.0632 20.3372 95.647 20.7683 96.0775C21.1994 96.508 21.7839 96.75 22.3935 96.7505H93.2833C93.8929 96.75 94.4774 96.508 94.9085 96.0775C95.3395 95.647 95.5819 95.0632 95.5824 94.4544V46.6788C95.5809 46.0705 95.3382 45.4875 94.9072 45.0576C94.4763 44.6277 93.8924 44.3859 93.2833 44.3852H22.3935C21.7844 44.3859 21.2004 44.6278 20.7695 45.0576C20.3386 45.4875 20.0958 46.0705 20.0944 46.6788Z" fill="#3F3D56"/>
<path d="M21.7574 47.2732V93.865C21.758 94.1903 21.8876 94.5021 22.118 94.7321C22.3483 94.9621 22.6605 95.0916 22.9862 95.0922H92.6932C93.0189 95.0916 93.3311 94.9621 93.5615 94.7321C93.7918 94.5021 93.9214 94.1903 93.922 93.865V47.2732C93.9219 46.9475 93.7926 46.6351 93.5622 46.4046C93.3318 46.1741 93.0193 46.0442 92.6932 46.0435H22.9862C22.6601 46.0442 22.3476 46.1741 22.1172 46.4046C21.8869 46.6351 21.7575 46.9475 21.7574 47.2732Z" fill="white"/>
<path d="M34.6938 114.278C34.7647 114.367 34.8549 114.438 34.9576 114.487C35.0602 114.537 35.1727 114.562 35.2865 114.561H76.7576C76.871 114.561 76.983 114.536 77.0854 114.487C77.1877 114.438 77.2779 114.367 77.3493 114.279C77.4208 114.191 77.4717 114.088 77.4984 113.978C77.5251 113.868 77.5268 113.754 77.5036 113.643L76.8598 110.589C76.8331 110.464 76.7757 110.348 76.6927 110.252C76.6097 110.155 76.5038 110.081 76.3847 110.035C76.2984 110.001 76.2065 109.984 76.1139 109.984H35.9277C35.835 109.984 35.7431 110.001 35.6569 110.035C35.5377 110.081 35.4318 110.155 35.3488 110.252C35.2658 110.348 35.2084 110.464 35.1817 110.589L34.538 113.643C34.5151 113.753 34.5172 113.868 34.5441 113.978C34.5711 114.088 34.6222 114.19 34.6938 114.278Z" fill="#2F2E41"/>
<path d="M90.431 52.4617H25.2064C25.1386 52.4602 25.0741 52.4323 25.0267 52.3838C24.9793 52.3354 24.9528 52.2704 24.9528 52.2027C24.9528 52.1349 24.9793 52.0699 25.0267 52.0215C25.0741 51.9731 25.1386 51.9451 25.2064 51.9436H90.431C90.4988 51.9451 90.5633 51.9731 90.6107 52.0215C90.6582 52.0699 90.6847 52.1349 90.6847 52.2027C90.6847 52.2704 90.6582 52.3354 90.6107 52.3838C90.5633 52.4323 90.4988 52.4602 90.431 52.4617Z" fill="#3F3D56"/>
<path d="M29.6463 50.621C30.4858 50.621 31.1664 49.9262 31.1664 49.069C31.1664 48.2119 30.4858 47.5171 29.6463 47.5171C28.8068 47.5171 28.1262 48.2119 28.1262 49.069C28.1262 49.9262 28.8068 50.621 29.6463 50.621Z" fill="#3F3D56"/>
<path d="M34.8975 50.621C35.7371 50.621 36.4176 49.9262 36.4176 49.069C36.4176 48.2119 35.7371 47.5171 34.8975 47.5171C34.058 47.5171 33.3774 48.2119 33.3774 49.069C33.3774 49.9262 34.058 50.621 34.8975 50.621Z" fill="#3F3D56"/>
<path d="M40.1487 50.621C40.9883 50.621 41.6688 49.9262 41.6688 49.069C41.6688 48.2119 40.9883 47.5171 40.1487 47.5171C39.3092 47.5171 38.6287 48.2119 38.6287 49.069C38.6287 49.9262 39.3092 50.621 40.1487 50.621Z" fill="#3F3D56"/>
<path d="M87.2689 47.9008H83.5392C83.4655 47.9026 83.3954 47.933 83.3438 47.9857C83.2923 48.0384 83.2634 48.1091 83.2634 48.1828C83.2634 48.2564 83.2923 48.3271 83.3438 48.3798C83.3954 48.4325 83.4655 48.463 83.5392 48.4647H87.2689C87.3431 48.4636 87.4139 48.4335 87.466 48.3807C87.518 48.328 87.5472 48.2568 87.5472 48.1828C87.5472 48.1087 87.518 48.0376 87.466 47.9848C87.4139 47.9321 87.3431 47.9019 87.2689 47.9008Z" fill="#3F3D56"/>
<path d="M87.2689 48.9596H83.5392C83.4654 48.9613 83.3952 48.9917 83.3436 49.0444C83.292 49.0971 83.2631 49.1678 83.2631 49.2415C83.2631 49.3153 83.292 49.386 83.3436 49.4387C83.3952 49.4914 83.4654 49.5218 83.5392 49.5235H87.2689C87.3431 49.5226 87.4141 49.4925 87.4663 49.4397C87.5185 49.3869 87.5478 49.3157 87.5478 49.2415C87.5478 49.1674 87.5185 49.0962 87.4663 49.0434C87.4141 48.9906 87.3431 48.9605 87.2689 48.9596Z" fill="#3F3D56"/>
<path d="M87.2689 50.0184H83.5392C83.4655 50.0201 83.3954 50.0506 83.3438 50.1033C83.2923 50.1559 83.2634 50.2267 83.2634 50.3003C83.2634 50.374 83.2923 50.4447 83.3438 50.4974C83.3954 50.5501 83.4655 50.5805 83.5392 50.5822H87.2689C87.3431 50.5812 87.4139 50.551 87.466 50.4983C87.518 50.4455 87.5472 50.3744 87.5472 50.3003C87.5472 50.2262 87.518 50.1551 87.466 50.1024C87.4139 50.0496 87.3431 50.0194 87.2689 50.0184Z" fill="#3F3D56"/>
<path d="M177.185 112.538C177.298 112.865 177.511 113.149 177.795 113.347C178.079 113.546 178.418 113.649 178.765 113.643L185.532 113.469C185.881 113.462 186.218 113.343 186.494 113.129C186.769 112.915 186.968 112.617 187.06 112.281L188.018 102.054C188.357 102.207 188.727 102.283 189.1 102.276C189.424 102.268 189.744 102.196 190.04 102.064C190.336 101.933 190.603 101.745 190.827 101.51C191.05 101.276 191.225 100.999 191.342 100.697C191.458 100.395 191.514 100.073 191.506 99.7497C191.497 99.4261 191.426 99.1073 191.294 98.8114C191.163 98.5156 190.974 98.2485 190.739 98.0254C190.504 97.8024 190.228 97.6277 189.925 97.5114C189.623 97.395 189.3 97.3393 188.976 97.3475C188.827 97.347 188.679 97.3624 188.533 97.3935C188.374 97.2222 188.182 97.086 187.967 96.9936C187.753 96.9012 187.521 96.8546 187.288 96.857L176.878 97.1255C176.791 97.1286 176.705 97.1393 176.621 97.1573C176.393 97.1998 176.176 97.2907 175.986 97.4237C175.796 97.5568 175.636 97.729 175.518 97.9288C175.4 98.1286 175.327 98.3513 175.302 98.5819C175.278 98.8126 175.303 99.0458 175.376 99.2658L177.185 112.538ZM188.214 101.359L188.896 98.9219C188.973 98.6404 188.975 98.3434 188.901 98.061C188.934 98.0609 188.963 98.0452 188.996 98.0451C189.463 98.0355 189.915 98.2113 190.253 98.534C190.591 98.8567 190.786 99.2999 190.797 99.7666C190.808 100.233 190.634 100.685 190.311 101.023C189.989 101.361 189.546 101.558 189.079 101.57C188.777 101.58 188.478 101.507 188.214 101.359Z" fill="#2F2E41"/>
<path d="M176.621 97.1573C176.843 98.4238 179.336 99.3141 182.335 99.1594C185.092 99.0325 187.346 98.0656 187.759 96.9197C187.606 96.8745 187.447 96.8534 187.288 96.857L176.878 97.1254C176.791 97.1286 176.705 97.1393 176.621 97.1573Z" fill="#3F3D56"/>
<path d="M182.884 106.918C182.898 106.915 182.911 106.909 182.923 106.901L184.392 105.94C184.41 105.929 184.425 105.913 184.435 105.894C184.445 105.876 184.45 105.855 184.45 105.834C184.45 105.812 184.445 105.792 184.435 105.773C184.425 105.754 184.41 105.739 184.392 105.727L182.865 104.728C182.851 104.718 182.835 104.712 182.818 104.709C182.802 104.706 182.785 104.706 182.769 104.709C182.752 104.713 182.736 104.719 182.723 104.729C182.709 104.738 182.697 104.75 182.688 104.764C182.678 104.778 182.672 104.794 182.669 104.81C182.666 104.827 182.666 104.844 182.669 104.86C182.673 104.877 182.679 104.892 182.689 104.906C182.699 104.92 182.711 104.932 182.725 104.941L184.089 105.833L182.783 106.688C182.757 106.704 182.739 106.729 182.73 106.758C182.722 106.787 182.724 106.818 182.736 106.846C182.748 106.873 182.769 106.896 182.797 106.909C182.824 106.922 182.855 106.925 182.884 106.918H182.884Z" fill="#04C0ED"/>
<path d="M180.563 107.025C180.587 107.019 180.61 107.005 180.627 106.986C180.644 106.967 180.654 106.944 180.658 106.919C180.661 106.893 180.657 106.868 180.646 106.845C180.635 106.822 180.617 106.803 180.595 106.791L179.24 106.015L180.55 105.044C180.563 105.034 180.574 105.021 180.583 105.007C180.592 104.992 180.597 104.976 180.6 104.96C180.602 104.943 180.601 104.926 180.597 104.91C180.593 104.894 180.586 104.879 180.576 104.865C180.566 104.852 180.553 104.84 180.539 104.832C180.525 104.823 180.509 104.818 180.492 104.815C180.476 104.813 180.459 104.814 180.442 104.818C180.426 104.822 180.411 104.829 180.397 104.839L178.931 105.927C178.914 105.939 178.901 105.956 178.892 105.975C178.883 105.994 178.879 106.015 178.88 106.036C178.881 106.058 178.888 106.078 178.899 106.096C178.91 106.114 178.926 106.129 178.944 106.139L180.468 107.012C180.497 107.028 180.531 107.033 180.563 107.025Z" fill="#04C0ED"/>
<path d="M182.738 107.76C182.75 107.757 182.762 107.752 182.773 107.745C182.787 107.736 182.8 107.725 182.81 107.712C182.819 107.698 182.827 107.683 182.831 107.666C182.835 107.65 182.835 107.633 182.833 107.617C182.83 107.6 182.824 107.584 182.816 107.57L180.732 104.149C180.715 104.12 180.686 104.099 180.653 104.092C180.62 104.084 180.586 104.089 180.557 104.107C180.528 104.124 180.507 104.153 180.499 104.185C180.491 104.218 180.496 104.253 180.514 104.282L182.597 107.703C182.612 107.726 182.633 107.744 182.658 107.754C182.683 107.765 182.711 107.767 182.738 107.76Z" fill="#04C0ED"/>
<path d="M65.6119 66.5448H54.323C53.8625 66.5448 53.4891 66.9176 53.4891 67.3776V68.479C53.4891 68.939 53.8625 69.3118 54.323 69.3118H65.6119C66.0725 69.3118 66.4458 68.939 66.4458 68.479V67.3776C66.4458 66.9176 66.0725 66.5448 65.6119 66.5448Z" fill="#04C0ED"/>
<path d="M72.1921 72.0789H47.7427C47.2821 72.0789 46.9088 72.4517 46.9088 72.9117V74.0132C46.9088 74.4731 47.2821 74.8459 47.7427 74.8459H72.1921C72.6526 74.8459 73.026 74.4731 73.026 74.0132V72.9117C73.026 72.4517 72.6526 72.0789 72.1921 72.0789Z" fill="#E6E6E6"/>
<path d="M72.1921 77.613H47.7427C47.2821 77.613 46.9088 77.9859 46.9088 78.4458V79.5473C46.9088 80.0072 47.2821 80.3801 47.7427 80.3801H72.1921C72.6526 80.3801 73.026 80.0072 73.026 79.5473V78.4458C73.026 77.9859 72.6526 77.613 72.1921 77.613Z" fill="#E6E6E6"/>
<path d="M74.2646 96.1446L74.32 96.3192L74.3229 96.325L75.9898 101.386L77.9074 107.219L81.5152 118.18L81.5501 119.882V119.888L81.8182 133.584L81.0751 135.441L81.9115 138.486C81.9115 138.486 81.5268 133.884 79.4636 136.527C78.295 138.028 76.9282 139.565 75.8062 141.006C77.4411 141.666 79.1022 142.264 80.7895 142.799C81.1538 142.915 81.521 143.026 81.8882 143.136C81.9668 143.159 82.0455 143.183 82.1242 143.206C87.7174 144.858 93.4998 145.786 99.3296 145.968C99.6326 145.977 99.9299 145.983 100.218 145.988C100.32 145.991 100.419 145.994 100.519 145.994C100.845 145.997 101.168 146 101.495 146C102.153 146 102.809 145.99 103.462 145.971C108.293 145.835 113.097 145.186 117.791 144.035C117.759 142.1 117.671 139.839 117.546 137.423C117.488 136.238 116.179 134.955 116.101 133.715C116.045 132.784 117.22 131.908 117.159 130.962C116.762 125.138 116.267 127.374 115.9 123.25C115.862 122.845 115.827 122.458 115.795 122.088C115.559 119.44 115.396 117.784 115.396 117.784L116.963 107.914L119.426 92.4193L119.236 92.1078L119.024 92.0031L106.035 85.5827L105.33 83.7782C105.124 83.2583 104.768 82.8117 104.306 82.4959C103.845 82.18 103.299 82.0093 102.739 82.0057L94.1831 81.9708C93.7391 81.9688 93.301 82.0726 92.9052 82.2735C92.5093 82.4745 92.1672 82.7668 91.9071 83.1262L89.5904 86.3306L74.2646 96.1446Z" fill="#3F3D56"/>
<path d="M83.4881 115.741L81.5501 119.882L80.2271 122.711L77.9512 134.612L76.8117 135.82L75.8354 131.544L65.6177 133.81C65.2825 131.95 65.528 133.873 65.321 131.832C65.3793 131.774 65.4405 131.716 65.5017 131.658C65.6649 131.506 65.8019 131.364 65.799 131.227C65.6824 124.19 66.0321 112.213 68.9521 104.957C69.4095 103.773 70.0125 102.649 70.7473 101.613C70.8055 101.535 70.8609 101.456 70.9163 101.378C72.2626 99.4945 73.1136 97.6406 74.3201 96.3222V96.3192C74.3276 96.3132 74.3344 96.3064 74.3405 96.2989C74.3448 96.2967 74.3488 96.2937 74.3521 96.2901L82.6401 91.9012L82.9956 101.878L83.2491 109.049L83.4881 115.741Z" fill="#3F3D56"/>
<path d="M113.373 116.917L115.794 122.09L116.639 123.891L118.914 135.791L120.05 136.996L121.028 132.721L121.488 132.627L129.78 130.912L132.196 138.577C132.741 137.671 132.956 136.604 132.804 135.558C132.652 134.512 132.143 133.55 131.363 132.835C131.198 132.686 131.061 132.541 131.065 132.404C131.202 124.127 130.695 109.013 126.117 102.792C124.663 100.818 123.791 98.8515 122.521 97.4778C122.517 97.4739 122.517 97.47 122.514 97.47L119.425 92.4189L119.236 92.1089L119.024 92.0029L113.373 116.917Z" fill="#3F3D56"/>
<path d="M98.7084 79.539C104.995 79.539 110.091 74.4493 110.091 68.1708C110.091 61.8924 104.995 56.8027 98.7084 56.8027C92.4218 56.8027 87.3256 61.8924 87.3256 68.1708C87.3256 74.4493 92.4218 79.539 98.7084 79.539Z" fill="#FFB6B6"/>
<path d="M114.094 60.2302C114.005 60.1361 113.899 60.0607 113.781 60.0085C113.663 59.9563 113.535 59.9285 113.406 59.9266L113.577 59.4521C113.633 59.3026 113.648 59.141 113.621 58.9838C113.594 58.8266 113.525 58.6794 113.422 58.5574C113.319 58.4354 113.186 58.3429 113.035 58.2894C112.885 58.2359 112.723 58.2233 112.566 58.253L111.943 58.3729L112.001 57.957C112.024 57.8021 112.006 57.6441 111.948 57.4983C111.891 57.3526 111.797 57.2243 111.675 57.126C111.553 57.0276 111.408 56.9627 111.253 56.9375C111.098 56.9123 110.94 56.9278 110.793 56.9824C110.659 57.0349 110.516 57.0569 110.372 57.0468C110.229 57.0366 110.09 56.9946 109.965 56.9237C109.84 56.8551 109.731 56.7599 109.646 56.6449C109.562 56.5299 109.503 56.3978 109.475 56.2578L109.258 55.2118L109.235 55.1557C108.177 53.3953 106.144 52.1145 103.655 51.6451C101.441 51.2241 99.1696 51.4384 96.9803 51.64C96.1118 51.7216 95.1308 51.8135 94.3134 52.3135C93.6185 52.7421 93.031 53.5994 93.151 54.4643C90.9924 53.8035 88.6779 55.1225 87.5309 56.786C86.1719 58.7658 85.9496 61.2456 85.9139 63.1846C85.8168 67.7718 86.7645 71.5248 88.7239 74.3414C88.867 74.5455 88.9027 74.9716 89.1863 75.1145L89.1275 75.0201C89.4443 75.1783 89.7662 75.4334 89.6461 75.7064C89.3013 76.4922 91.5927 78.2296 93.2072 78.8037C96.1527 79.8522 100.069 79.7629 102.823 79.3854L102.92 78.7348C103.913 78.5996 104.613 78.3419 104.81 77.9388C105.158 77.6428 105.454 77.3775 105.712 77.1326L105.714 77.13C105.72 77.1249 105.73 77.1173 105.735 77.1121C106.979 75.9207 107.268 75.2421 107.398 74.2088C107.523 73.1959 107.301 72.1677 107.074 71.2416C111.861 71.9815 105.188 66.1492 109.649 65.0216C109.7 65.0058 109.752 64.993 109.804 64.9833C109.935 64.9527 110.065 64.9221 110.19 64.8863C110.793 64.7228 111.371 64.4763 111.907 64.1541C113.153 63.3964 113.565 62.3912 114.208 61.2584C114.301 61.0971 114.34 60.9104 114.32 60.7255C114.299 60.5406 114.22 60.3671 114.094 60.2302Z" fill="#2F2E41"/>
<path d="M138.968 117.726C138.965 118.173 138.96 118.798 138.939 119.571C138.937 119.678 138.934 119.788 138.932 119.9C138.899 121.321 138.865 122.512 138.812 123.837C138.809 123.928 138.807 124.018 138.801 124.11C138.73 125.957 138.618 128.107 138.423 131.513C138.063 137.805 137.435 132.378 136.804 134.585C136.773 134.695 136.74 134.825 136.709 134.978C136.614 135.534 136.453 136.076 136.229 136.593C135.894 136.792 135.55 136.983 135.21 137.175C134.242 137.713 133.258 138.231 132.267 138.723C131.71 138.999 131.151 139.269 130.589 139.53C130.499 139.57 130.412 139.611 130.325 139.65C127.447 140.979 124.481 142.109 121.448 143.033C120.856 143.211 120.265 143.385 119.668 143.545C119.044 143.719 118.421 143.882 117.79 144.035C113.096 145.186 108.293 145.835 103.461 145.972C102.81 145.992 102.153 146 101.494 146C101.167 146 100.845 145.997 100.518 145.995C100.419 145.995 100.319 145.992 100.22 145.99C99.9309 145.982 99.632 145.977 99.3306 145.969C93.5007 145.788 87.7184 144.859 82.1254 143.206L81.8879 143.137C81.52 143.025 81.1547 142.915 80.7894 142.798C79.1034 142.265 77.442 141.668 75.8054 141.007C74.5562 140.504 73.3215 139.965 72.1012 139.389C72.0901 139.386 72.0797 139.381 72.0706 139.374C71.8151 139.257 71.5571 139.134 71.3017 139.009C71.2685 138.991 71.2327 138.973 71.1969 138.956C70.2441 138.491 69.3014 138.005 68.369 137.496C67.5847 135.698 66.4812 135.353 65.7965 133.771C65.5973 133.301 65.4533 132.81 65.3674 132.307C65.3674 132.302 65.3648 132.297 65.3648 132.289C65.4363 133.238 65.0608 130.605 65.3622 132.279C65.3597 132.248 65.3571 132.215 65.3546 132.177C65.3469 132.085 65.3367 131.973 65.3214 131.832C64.4452 123.288 64.5014 113.517 64.1207 105.465C64.0952 104.944 64.0688 104.446 64.0415 103.97C64.0339 103.811 64.0237 103.656 64.0134 103.503C64.0313 103.457 64.0517 103.408 64.0747 103.362C64.0796 103.349 64.0856 103.336 64.0926 103.324C64.1002 103.308 64.1087 103.293 64.1182 103.278C64.1233 103.271 64.1309 103.26 64.1361 103.253C64.1398 103.244 64.144 103.235 64.1488 103.227C64.1718 103.192 64.1974 103.153 64.2255 103.118C64.2382 103.102 64.2485 103.089 64.2612 103.077C64.27 103.064 64.2803 103.052 64.2919 103.041C64.2997 103.029 64.3092 103.018 64.32 103.008C64.3302 102.998 64.3404 102.985 64.3532 102.972C64.3586 102.964 64.3656 102.957 64.3736 102.952C64.3938 102.929 64.4161 102.907 64.44 102.888C64.5312 102.804 64.6285 102.727 64.7313 102.658C64.767 102.635 64.8053 102.612 64.8411 102.587C65.0986 102.433 65.3696 102.303 65.6509 102.199C65.748 102.163 65.8451 102.13 65.9498 102.094C65.9881 102.084 66.0239 102.072 66.0622 102.059C66.1184 102.041 66.1746 102.023 66.2334 102.01C66.5246 101.924 66.8388 101.85 67.1786 101.781C67.2194 101.773 67.2629 101.765 67.3063 101.755C67.3676 101.742 67.4315 101.732 67.4953 101.722C67.5822 101.707 67.6716 101.691 67.761 101.676C68.5197 101.556 69.3806 101.467 70.3309 101.408C70.4203 101.403 70.5097 101.398 70.5992 101.393C70.7039 101.388 70.8086 101.383 70.9159 101.378C71.0053 101.372 71.0973 101.37 71.1893 101.367C71.2787 101.362 71.3706 101.36 71.4652 101.357C71.7232 101.349 71.9888 101.342 72.2596 101.337C73.0311 101.321 73.8435 101.327 74.6967 101.344C75.0927 101.355 75.4963 101.365 75.9101 101.383C75.9383 101.383 75.9638 101.385 75.9893 101.385C76.3495 101.398 76.7123 101.413 77.0852 101.434C77.3458 101.446 77.6089 101.459 77.872 101.475C78.1198 101.49 78.3702 101.505 78.6231 101.523C78.8198 101.533 79.0165 101.548 79.2158 101.561C79.3844 101.574 79.553 101.587 79.7216 101.597L79.9515 101.612C80.0767 101.622 80.2018 101.63 80.3296 101.643C80.6106 101.666 80.8916 101.689 81.1777 101.712C81.4613 101.737 81.7499 101.763 82.0386 101.788C82.3273 101.814 82.6185 101.842 82.9097 101.87C82.9403 101.873 82.9685 101.875 82.9966 101.878C83.2622 101.906 83.5279 101.931 83.7961 101.959C83.8575 101.964 83.9213 101.969 83.9826 101.977C84.2384 102.003 84.4991 102.033 84.7572 102.06C84.8364 102.069 84.9152 102.077 84.9946 102.086C85.1968 102.108 85.3961 102.127 85.5996 102.151C85.8679 102.181 86.1412 102.209 86.4069 102.245C86.6138 102.268 86.8207 102.291 87.0277 102.316C87.3521 102.355 87.6816 102.396 88.0112 102.439C88.1364 102.454 88.2615 102.47 88.3867 102.487C89.3268 102.605 90.2771 102.735 91.2427 102.87C92.7065 103.077 94.1933 103.301 95.6903 103.544C97.1898 103.786 98.6979 104.042 100.214 104.312C100.598 104.38 100.981 104.449 101.367 104.521C101.54 104.554 101.714 104.587 101.888 104.62C102.184 104.674 102.48 104.73 102.777 104.786C103.073 104.842 103.369 104.898 103.666 104.957C104.018 105.026 104.373 105.095 104.726 105.164C107.048 105.623 109.357 106.113 111.61 106.626C111.981 106.71 112.351 106.797 112.719 106.881C113.455 107.052 114.184 107.225 114.906 107.401C115.105 107.447 115.302 107.496 115.499 107.544C115.989 107.666 116.48 107.789 116.962 107.914L117.047 107.937C117.402 108.024 117.749 108.113 118.097 108.205C118.917 108.419 119.723 108.636 120.516 108.855C121.042 109.001 121.562 109.148 122.077 109.297C122.846 109.519 123.599 109.743 124.332 109.97C124.514 110.026 124.695 110.083 124.874 110.136C125.41 110.302 125.939 110.47 126.453 110.639C126.861 110.771 127.26 110.907 127.653 111.042C128.047 111.177 128.432 111.312 128.811 111.448C129.053 111.534 129.293 111.626 129.533 111.713C129.878 111.84 130.218 111.968 130.55 112.096C130.652 112.134 130.752 112.175 130.852 112.213C130.915 112.241 130.977 112.264 131.038 112.289C131.158 112.338 131.281 112.384 131.398 112.432C131.518 112.478 131.636 112.527 131.753 112.578C131.868 112.624 131.986 112.672 132.098 112.721C132.213 112.767 132.326 112.815 132.438 112.866C132.533 112.904 132.624 112.945 132.714 112.986C132.895 113.065 133.077 113.144 133.253 113.226C133.34 113.267 133.427 113.305 133.513 113.346L133.713 113.438C133.741 113.453 133.769 113.466 133.797 113.478C133.861 113.509 133.927 113.542 133.991 113.573C134.139 113.642 134.285 113.716 134.428 113.785C134.62 113.881 134.806 113.978 134.985 114.073C135.166 114.17 135.343 114.267 135.511 114.361C135.539 114.376 135.565 114.392 135.593 114.407C135.631 114.427 135.67 114.45 135.708 114.471C135.838 114.545 135.963 114.621 136.089 114.695C136.334 114.846 136.566 114.994 136.783 115.142C136.832 115.175 136.878 115.208 136.926 115.239C137.087 115.354 137.241 115.466 137.384 115.581C137.384 115.583 137.384 115.583 137.386 115.583C137.435 115.619 137.481 115.657 137.527 115.693C137.565 115.729 137.606 115.759 137.644 115.795C137.777 115.91 137.9 116.019 138.012 116.132C138.05 116.166 138.086 116.203 138.119 116.241C138.134 116.254 138.148 116.267 138.16 116.282C138.211 116.333 138.257 116.384 138.301 116.435C138.308 116.442 138.314 116.45 138.319 116.458C138.38 116.53 138.436 116.601 138.49 116.673C138.515 116.708 138.543 116.744 138.566 116.78C138.597 116.823 138.628 116.869 138.653 116.912C138.676 116.948 138.697 116.986 138.717 117.022C138.771 117.114 138.818 117.211 138.855 117.31C138.884 117.378 138.907 117.448 138.924 117.52C138.943 117.587 138.958 117.656 138.968 117.726Z" fill="#2F2E41"/>
<path opacity="0.2" d="M138.968 117.726C138.965 118.173 138.96 118.798 138.939 119.571C138.937 119.678 138.932 119.788 138.929 119.9C138.904 120.984 138.865 122.324 138.812 123.837C138.809 123.928 138.807 124.018 138.802 124.11C138.73 125.957 138.618 128.108 138.423 131.513C138.063 137.805 137.435 132.378 136.804 134.585C135.051 133.509 133.13 132.381 131.076 131.223C130.706 131.013 130.332 130.803 129.955 130.592C125.847 128.304 121.259 125.906 116.469 123.53C116.28 123.436 116.089 123.342 115.9 123.25C104.928 117.833 92.9518 112.565 83.2495 109.049C81.377 108.371 79.5887 107.758 77.9078 107.22C74.3672 106.09 71.3068 105.299 68.9514 104.957C66.499 104.6 64.8053 104.727 64.1207 105.465C64.0952 104.944 64.0688 104.446 64.0415 103.97C64.0313 103.811 64.0211 103.656 64.0109 103.503C64.0266 103.461 64.0471 103.421 64.0669 103.38C64.0698 103.374 64.0718 103.368 64.0747 103.362C64.0796 103.349 64.0856 103.336 64.0926 103.324C64.1001 103.308 64.1087 103.293 64.1182 103.278C64.1265 103.26 64.1367 103.243 64.1488 103.227C64.1718 103.192 64.1973 103.153 64.2254 103.118C64.2461 103.091 64.2683 103.065 64.2919 103.041C64.2997 103.029 64.3092 103.018 64.32 103.008C64.3302 102.998 64.3404 102.985 64.3532 102.972C64.3586 102.964 64.3656 102.957 64.3736 102.952C64.3938 102.929 64.4161 102.907 64.44 102.888C64.5312 102.804 64.6285 102.727 64.7313 102.658C64.767 102.635 64.8053 102.612 64.8411 102.587C65.0986 102.433 65.3696 102.303 65.6509 102.199C65.748 102.163 65.8451 102.13 65.9498 102.094C65.9881 102.084 66.0239 102.072 66.0622 102.059C66.1184 102.041 66.1746 102.023 66.2334 102.01C66.5246 101.924 66.8388 101.85 67.1786 101.781C67.2807 101.76 67.388 101.74 67.4953 101.722C67.5822 101.707 67.6716 101.691 67.761 101.676C68.5197 101.556 69.3806 101.467 70.3309 101.408C70.4203 101.403 70.5097 101.398 70.5991 101.393C70.7039 101.388 70.8086 101.383 70.9159 101.378C71.0053 101.372 71.0973 101.37 71.1893 101.367C71.2787 101.362 71.3706 101.36 71.4652 101.357C71.7232 101.349 71.9888 101.342 72.2596 101.337C73.0311 101.324 73.8435 101.329 74.6967 101.347C75.0927 101.355 75.4963 101.367 75.9101 101.385C75.9357 101.385 75.9638 101.388 75.9893 101.388C76.3495 101.398 76.7148 101.416 77.0852 101.434C77.3458 101.446 77.6089 101.459 77.872 101.474C78.1198 101.49 78.3702 101.505 78.6231 101.523C78.8198 101.533 79.0165 101.548 79.2157 101.561C79.3844 101.574 79.553 101.587 79.7216 101.597C79.9234 101.612 80.1252 101.628 80.3296 101.643C80.6106 101.666 80.8916 101.689 81.1777 101.712C81.4612 101.737 81.7499 101.763 82.0386 101.788C82.3272 101.814 82.6185 101.842 82.9097 101.87C82.9403 101.872 82.9684 101.875 82.9965 101.878C83.2622 101.906 83.5279 101.931 83.7961 101.959C85.2829 102.11 86.8131 102.286 88.3867 102.487C89.3268 102.607 90.2788 102.736 91.2427 102.873C92.7065 103.079 94.1933 103.304 95.6903 103.544C97.1899 103.786 98.6979 104.042 100.214 104.312C100.598 104.38 100.981 104.449 101.367 104.521C101.837 104.607 102.307 104.696 102.777 104.786C103.073 104.842 103.369 104.898 103.666 104.957C104.018 105.026 104.373 105.095 104.726 105.164C107.048 105.623 109.357 106.113 111.61 106.626C111.981 106.71 112.351 106.796 112.719 106.881C113.455 107.052 114.184 107.225 114.906 107.401C115.105 107.45 115.302 107.498 115.499 107.547C115.992 107.669 116.48 107.792 116.962 107.914V107.917C116.99 107.922 117.019 107.929 117.047 107.937C117.399 108.026 117.749 108.116 118.097 108.207C118.917 108.422 119.723 108.638 120.516 108.855C121.042 109.003 121.563 109.149 122.077 109.297C122.846 109.521 123.599 109.746 124.332 109.97C124.514 110.026 124.695 110.083 124.874 110.136C125.41 110.305 125.937 110.472 126.453 110.639C126.861 110.771 127.26 110.907 127.653 111.042C128.047 111.177 128.432 111.312 128.811 111.448C129.056 111.534 129.296 111.624 129.533 111.71C129.881 111.838 130.218 111.965 130.55 112.096C130.652 112.134 130.752 112.175 130.852 112.213C131.038 112.284 131.219 112.358 131.398 112.432C131.518 112.478 131.636 112.527 131.753 112.578C131.868 112.624 131.986 112.672 132.098 112.721C132.213 112.767 132.326 112.815 132.438 112.866C132.533 112.904 132.625 112.945 132.714 112.986C132.895 113.065 133.077 113.144 133.253 113.226C133.34 113.267 133.427 113.305 133.514 113.346L133.713 113.438C133.741 113.453 133.769 113.466 133.797 113.478C134.014 113.58 134.224 113.682 134.428 113.785C134.62 113.881 134.806 113.978 134.985 114.073C135.197 114.185 135.399 114.295 135.593 114.407C135.631 114.427 135.67 114.45 135.708 114.471C135.838 114.545 135.963 114.621 136.089 114.695C136.334 114.846 136.566 114.994 136.783 115.142C136.998 115.29 137.197 115.435 137.384 115.581C137.384 115.583 137.384 115.583 137.386 115.583C137.476 115.655 137.563 115.726 137.644 115.795C137.777 115.91 137.9 116.019 138.012 116.132C138.05 116.166 138.086 116.203 138.119 116.241C138.134 116.254 138.148 116.267 138.16 116.282C138.214 116.341 138.268 116.4 138.319 116.458C138.38 116.53 138.436 116.601 138.49 116.673C138.515 116.708 138.544 116.744 138.566 116.78C138.597 116.823 138.628 116.869 138.653 116.912C138.676 116.948 138.697 116.986 138.717 117.022C138.771 117.114 138.818 117.21 138.855 117.31C138.883 117.378 138.906 117.448 138.924 117.52C138.943 117.587 138.958 117.656 138.968 117.726Z" fill="black"/>
</svg>
