<svg width="56" height="56" viewBox="0 0 56 56" fill="none" xmlns="http://www.w3.org/2000/svg">
<path d="M25.6088 37.3912L17.2088 28.9912C17.0784 28.8612 16.975 28.7067 16.9044 28.5366C16.8338 28.3665 16.7975 28.1841 16.7975 28C16.7975 27.8159 16.8338 27.6335 16.9044 27.4634C16.975 27.2933 17.0784 27.1388 17.2088 27.0088L25.6088 18.6088C25.7389 18.4786 25.8935 18.3754 26.0635 18.3049C26.2336 18.2345 26.4159 18.1982 26.6 18.1982C26.7841 18.1982 26.9663 18.2345 27.1364 18.3049C27.3065 18.3754 27.461 18.4786 27.5912 18.6088C27.7213 18.739 27.8246 18.8935 27.895 19.0636C27.9655 19.2336 28.0017 19.4159 28.0017 19.6C28.0017 19.7841 27.9655 19.9664 27.895 20.1364C27.8246 20.3065 27.7213 20.461 27.5912 20.5912L21.5796 26.6H37.8C38.1713 26.6 38.5274 26.7475 38.7899 27.01C39.0525 27.2726 39.2 27.6287 39.2 28C39.2 28.3713 39.0525 28.7274 38.7899 28.99C38.5274 29.2525 38.1713 29.4 37.8 29.4H21.5796L27.5912 35.4088C27.8541 35.6717 28.0017 36.0282 28.0017 36.4C28.0017 36.7718 27.8541 37.1283 27.5912 37.3912C27.3283 37.6541 26.9717 37.8018 26.6 37.8018C26.2282 37.8018 25.8717 37.6541 25.6088 37.3912ZM5.59998 28C5.59998 33.9408 7.95997 39.6384 12.1608 43.8392C16.3616 48.04 22.0591 50.4 28 50.4C33.9408 50.4 39.6384 48.04 43.8392 43.8392C48.04 39.6384 50.4 33.9408 50.4 28C50.4 22.0592 48.04 16.3616 43.8392 12.1608C39.6384 7.95999 33.9408 5.6 28 5.6C22.0591 5.6 16.3616 7.95999 12.1608 12.1608C7.95997 16.3616 5.59998 22.0592 5.59998 28ZM28 47.6C25.4261 47.6 22.8774 47.093 20.4994 46.108C18.1214 45.123 15.9607 43.6793 14.1407 41.8593C12.3207 40.0393 10.8769 37.8786 9.89194 35.5006C8.90694 33.1226 8.39998 30.5739 8.39998 28C8.39998 25.4261 8.90694 22.8774 9.89194 20.4994C10.8769 18.1214 12.3207 15.9607 14.1407 14.1407C15.9607 12.3207 18.1214 10.877 20.4994 9.89196C22.8774 8.90697 25.4261 8.4 28 8.4C33.1982 8.4 38.1836 10.465 41.8593 14.1407C45.535 17.8164 47.6 22.8018 47.6 28C47.6 33.1982 45.535 38.1836 41.8593 41.8593C38.1836 45.535 33.1982 47.6 28 47.6Z" fill="#767676"/>
</svg>
