<svg width="393" height="341" viewBox="0 0 393 341" fill="none" xmlns="http://www.w3.org/2000/svg">
<g clip-path="url(#clip0_0_3)" filter="url(#filter0_d_0_3)">
<rect width="393" height="222.587" fill="#E8F2FE"/>
<ellipse cx="196.5" cy="227.038" rx="196.5" ry="99.9616" fill="#E8F2FE"/>
<g clip-path="url(#clip1_0_3)">
<path d="M214.359 272.453C275.368 272.453 324.826 223.103 324.826 162.227C324.826 101.35 275.368 52 214.359 52C153.35 52 103.892 101.35 103.892 162.227C103.892 223.103 153.35 272.453 214.359 272.453Z" fill="#F2F2F2"/>
<path d="M248.121 120.855C263.987 120.855 276.849 108.021 276.849 92.1903C276.849 76.3591 263.987 63.5254 248.121 63.5254C232.256 63.5254 219.394 76.3591 219.394 92.1903C219.394 108.021 232.256 120.855 248.121 120.855Z" fill="#FF6584"/>
<path d="M127.691 73.4199L128.476 89.7549C131.731 94.0868 135.242 99.0441 138.708 104.447L139.203 79.526L139.476 79.7002C135.467 76.8426 131.392 74.6563 127.417 73.2685L127.691 73.4199Z" fill="#0AAE94"/>
<path d="M127.903 88.996L127.143 73.1727C122.679 71.6538 118.349 71.1499 114.39 71.8544C114.184 71.891 113.981 71.9332 113.779 71.976C114.785 73.0528 120.647 79.4121 127.903 88.996Z" fill="#0AAE94"/>
<path d="M163.944 108.484L164.207 108.735C163.126 106.705 161.979 104.731 160.767 102.813L153.386 131.795L153.261 131.685C153.794 132.957 154.302 134.22 154.783 135.474L163.944 108.484Z" fill="#0AAE94"/>
<path d="M152.699 92.0076L152.971 92.2246C149.068 87.6107 144.631 83.4742 139.754 79.9015L139.249 105.297C142.474 110.376 145.362 115.378 147.912 120.304L152.699 92.0076Z" fill="#0AAE94"/>
<path d="M99.1522 99.9361C99.5669 104.217 100.414 108.444 101.681 112.555L145.699 117.085C143.401 112.857 141.029 108.89 138.726 105.274L99.2641 100.281L99.1522 99.9361Z" fill="#0AAE94"/>
<path d="M103.282 117.295L103.163 116.95L147.714 120.902C147.176 119.851 146.632 118.815 146.082 117.792L101.901 113.245L101.784 112.9C102.23 114.349 102.729 115.814 103.282 117.295Z" fill="#0AAE94"/>
<path d="M160.266 102.209L160.533 102.445C158.325 98.9785 155.884 95.6649 153.228 92.5265L148.376 121.205C150.058 124.5 151.581 127.748 152.945 130.949L160.266 102.209Z" fill="#0AAE94"/>
<path d="M159.323 150.116C161.094 157.761 161.765 164.99 161.322 171.722C163.813 166.425 173.288 144.482 169.746 124.032L159.323 150.116Z" fill="#0AAE94"/>
<path d="M111.455 132.751C113.812 135.92 116.379 138.927 119.14 141.753L119.032 141.37L158.661 149.505C157.63 145.236 156.344 141.032 154.808 136.917L111.455 132.751Z" fill="#0AAE94"/>
<path d="M127.561 89.2628C119.708 78.8957 113.511 72.3432 113.422 72.2494L113.524 72.031C107.564 73.3811 103.356 77.4271 101.041 83.2834L127.561 89.2628Z" fill="#0AAE94"/>
<path d="M155.15 136.446C155.296 136.836 155.445 137.227 155.586 137.615C156.947 141.336 158.104 145.128 159.052 148.973L169.376 123.137L169.628 123.389C168.975 119.794 167.867 116.296 166.332 112.979C165.723 111.678 165.086 110.397 164.42 109.135L155.15 136.446Z" fill="#0AAE94"/>
<path d="M138.265 104.554C134.835 99.215 131.363 94.3174 128.145 90.0364L101.016 83.9196L100.924 83.578C99.2306 88.0283 98.6114 93.4955 99.1243 99.6017L138.265 104.554Z" fill="#0AAE94"/>
<path d="M158.822 150.183L119.483 142.108C136.03 159.057 159.18 172.056 160.657 172.877C161.347 165.41 160.565 157.739 158.822 150.183Z" fill="#0AAE94"/>
<path d="M154.53 136.221L154.538 136.195C152.647 131.219 150.488 126.349 148.072 121.604L103.411 117.643C104.169 119.647 105.026 121.672 105.982 123.718C107.374 126.634 109.03 129.416 110.928 132.032L154.53 136.221Z" fill="#0AAE94"/>
<path d="M211.34 128.441L201.503 141.522C201.241 146.93 200.777 152.982 199.993 159.349L216.303 140.47L216.402 140.778C215.141 136.026 213.4 131.749 211.226 128.15L211.34 128.441Z" fill="#0AAE94"/>
<path d="M201.547 140.573L211.076 127.902C208.609 123.891 205.595 120.747 202.096 118.77C201.914 118.667 201.731 118.571 201.548 118.475C201.635 119.945 202.084 128.573 201.547 140.573Z" fill="#0AAE94"/>
<path d="M216.848 178.519L216.891 178.88C217.355 176.628 217.734 174.378 218.026 172.13L193.816 189.754L193.79 189.59C193.388 190.909 192.972 192.204 192.541 193.476L216.848 178.519Z" fill="#0AAE94"/>
<path d="M218.719 158.673L218.79 159.013C218.733 152.975 217.96 146.966 216.487 141.11L199.866 160.348C199.104 166.312 198.13 172.003 196.945 177.419L218.719 158.673Z" fill="#0AAE94"/>
<path d="M172.41 130.701C169.994 134.261 167.944 138.057 166.292 142.029L197.298 173.532C198.231 168.813 198.94 164.248 199.477 159.998L172.276 131.038L172.41 130.701Z" fill="#0AAE94"/>
<path d="M164.495 146.699L164.624 146.358L196.411 177.754C196.668 176.603 196.911 175.458 197.141 174.32L166.02 142.7L166.151 142.36C165.568 143.76 165.016 145.206 164.495 146.699Z" fill="#0AAE94"/>
<path d="M218.026 171.346L218.082 171.698C218.596 167.622 218.835 163.517 218.795 159.409L196.727 178.41C195.916 182.017 195.013 185.488 194.017 188.822L218.026 171.346Z" fill="#0AAE94"/>
<path d="M186.678 207.643C183.155 214.658 179.051 220.653 174.407 225.556C179.711 223.062 201.035 212.192 211.379 194.187L186.678 207.643Z" fill="#0AAE94"/>
<path d="M160.91 163.804C160.7 167.745 160.755 171.695 161.075 175.628L161.237 175.264L186.559 206.751C188.494 202.807 190.19 198.751 191.638 194.604L160.91 163.804Z" fill="#0AAE94"/>
<path d="M201.113 140.561C201.691 127.578 201.107 118.587 201.098 118.458L201.316 118.355C195.863 115.602 190.036 116.04 184.51 119.077L201.113 140.561Z" fill="#0AAE94"/>
<path d="M192.202 194.459C192.065 194.853 191.93 195.248 191.791 195.637C190.461 199.369 188.928 203.025 187.2 206.591L211.666 193.262L211.699 193.617C213.494 190.432 214.877 187.033 215.815 183.501C216.177 182.112 216.505 180.719 216.799 179.324L192.202 194.459Z" fill="#0AAE94"/>
<path d="M199.583 159.15C200.354 152.855 200.81 146.873 201.068 141.528L184.084 119.551L184.231 119.23C180.082 121.579 176.111 125.396 172.603 130.425L199.583 159.15Z" fill="#0AAE94"/>
<path d="M186.249 207.376L161.112 176.12C163.022 199.705 172.544 224.449 173.157 226.023C178.461 220.71 182.762 214.305 186.249 207.376Z" fill="#0AAE94"/>
<path d="M191.868 193.891L191.891 193.876C193.615 188.84 195.066 183.715 196.237 178.523L164.372 147.049C163.675 149.075 163.041 151.18 162.469 153.364C161.677 156.495 161.174 159.692 160.964 162.915L191.868 193.891Z" fill="#0AAE94"/>
<path d="M113.26 145.905L119.067 161.198C123.505 164.314 128.38 167.945 133.349 172.014L126.1 148.161L126.414 148.243C121.716 146.762 117.163 145.939 112.954 145.845L113.26 145.905Z" fill="#0AAE94"/>
<path d="M118.288 160.653L112.663 145.839C107.947 145.771 103.673 146.627 100.126 148.518C99.9414 148.617 99.7619 148.719 99.583 148.822C100.873 149.536 108.418 153.776 118.288 160.653Z" fill="#0AAE94"/>
<path d="M158.6 168.071L158.928 168.228C157.271 166.631 155.569 165.107 153.822 163.657L155.78 193.497L155.627 193.431C156.529 194.475 157.402 195.52 158.249 196.564L158.6 168.071Z" fill="#0AAE94"/>
<path d="M142.802 155.869L143.128 155.992C137.987 152.807 132.486 150.242 126.74 148.349L134.127 172.656C138.768 176.491 143.063 180.358 147.014 184.256L142.802 155.869Z" fill="#0AAE94"/>
<path d="M94.3334 179.925C96.0537 183.867 98.1689 187.627 100.647 191.146L143.913 181.878C140.418 178.565 136.933 175.524 133.623 172.796L94.5468 180.218L94.3334 179.925Z" fill="#0AAE94"/>
<path d="M103.638 195.16L103.419 194.868L147.012 184.886C146.175 184.053 145.336 183.235 144.496 182.432L101.07 191.734L100.852 191.442C101.725 192.682 102.653 193.921 103.638 195.16Z" fill="#0AAE94"/>
<path d="M153.158 163.237L153.486 163.379C150.312 160.764 146.964 158.365 143.466 156.199L147.736 184.97C150.355 187.585 152.81 190.204 155.099 192.828L153.158 163.237Z" fill="#0AAE94"/>
<path d="M167.102 209.089C171.154 215.814 174.032 222.481 175.696 229.021C176.425 223.215 178.638 199.424 168.935 181.068L167.102 209.089Z" fill="#0AAE94"/>
<path d="M116.198 207.338C119.422 209.625 122.795 211.693 126.296 213.529L126.075 213.198L166.283 208.712C163.98 204.97 161.455 201.369 158.72 197.929L116.198 207.338Z" fill="#0AAE94"/>
<path d="M118.045 161.012C107.365 153.575 99.4416 149.254 99.3277 149.193L99.3572 148.953C94.1075 152.075 91.359 157.221 90.9712 163.505L118.045 161.012Z" fill="#0AAE94"/>
<path d="M158.899 197.376C159.159 197.702 159.421 198.027 159.676 198.353C162.123 201.471 164.398 204.721 166.491 208.086L168.306 180.33L168.623 180.493C166.888 177.275 164.751 174.29 162.264 171.608C161.282 170.559 160.279 169.537 159.255 168.543L158.899 197.376Z" fill="#0AAE94"/>
<path d="M132.961 172.253C128.045 168.233 123.226 164.646 118.84 161.567L91.1446 164.117L90.9513 163.821C90.7193 168.576 91.8239 173.966 94.2033 179.615L132.961 172.253Z" fill="#0AAE94"/>
<path d="M166.646 209.308L126.732 213.761C147.719 224.776 173.762 229.998 175.422 230.324C173.764 223.01 170.644 215.956 166.646 209.308Z" fill="#0AAE94"/>
<path d="M158.239 197.353L158.239 197.326C154.899 193.177 151.337 189.21 147.569 185.444L103.869 195.451C105.211 197.122 106.653 198.784 108.196 200.435C110.423 202.779 112.859 204.915 115.475 206.816L158.239 197.353Z" fill="#0AAE94"/>
<path d="M350 239.356C350 252.576 281.846 276 197.775 276C113.703 276 45.5493 252.576 45.5493 239.356C45.5493 226.136 113.703 228.127 197.775 228.127C281.846 228.127 350 226.136 350 239.356Z" fill="#3F3D56"/>
<path opacity="0.1" d="M350 239.356C350 252.576 281.846 276 197.775 276C113.703 276 45.5493 252.576 45.5493 239.356C45.5493 226.136 113.703 228.127 197.775 228.127C281.846 228.127 350 226.136 350 239.356Z" fill="black"/>
<path d="M197.775 263.293C281.846 263.293 350 252.576 350 239.356C350 226.136 281.846 215.42 197.775 215.42C113.703 215.42 45.5493 226.136 45.5493 239.356C45.5493 252.576 113.703 263.293 197.775 263.293Z" fill="#3F3D56"/>
<path opacity="0.1" d="M224.166 214.337C224.166 228.74 204.047 224.285 179.413 224.285C154.779 224.285 134.958 228.74 134.958 214.337C134.958 199.935 155.075 196.802 179.709 196.802C204.343 196.802 224.166 199.935 224.166 214.337Z" fill="black"/>
<path d="M224.166 210.791C224.166 225.194 204.047 220.739 179.413 220.739C154.779 220.739 134.958 225.194 134.958 210.791C134.958 196.389 155.075 193.256 179.709 193.256C204.343 193.256 224.166 196.389 224.166 210.791Z" fill="#3F3D56"/>
<path d="M144.919 171.161C145.461 170.776 146.059 170.477 146.692 170.274C150.707 168.783 154.913 167.87 159.185 167.56C162.899 167.297 166.925 167.61 169.827 169.939C170.278 170.27 170.647 170.699 170.906 171.194C171.271 171.98 171.161 172.894 171.042 173.752C171.016 174.085 170.932 174.41 170.794 174.715C170.403 175.456 169.442 175.716 168.607 175.627C167.772 175.538 166.989 175.186 166.165 175.022C165.656 174.934 165.14 174.881 164.623 174.866L159.458 174.587C156.247 174.413 152.993 174.243 149.842 174.889C148.872 175.063 147.935 175.385 147.064 175.845C146.344 176.248 145.86 176.826 145.192 176.082C144.019 174.773 143.37 172.369 144.919 171.161Z" fill="#2F2E41"/>
<path d="M152.923 173.44C152.923 173.44 159.87 170.333 162.505 173.918C165.14 177.504 161.068 176.069 161.068 176.069L156.516 177.504L151.486 176.547L152.923 173.44Z" fill="#F2F2F2"/>
<path d="M153.282 171.169C153.282 171.169 154.24 175.711 153.522 176.906C152.803 178.101 157.594 179.774 157.594 179.774L162.146 177.862C162.146 177.862 160.948 170.452 162.146 169.018L153.282 171.169Z" fill="#FFB9B9"/>
<path opacity="0.1" d="M153.282 171.169C153.282 171.169 154.24 175.711 153.522 176.906C152.803 178.101 157.594 179.774 157.594 179.774L162.146 177.862C162.146 177.862 160.948 170.452 162.146 169.018L153.282 171.169Z" fill="black"/>
<path d="M148.793 225.779C149.437 227.111 149.967 228.496 150.376 229.918C150.383 229.965 150.4 230.01 150.425 230.05C150.45 230.09 150.484 230.125 150.524 230.151C150.563 230.177 150.608 230.195 150.655 230.203C150.702 230.211 150.75 230.208 150.796 230.196L155.057 230.192C155.582 230.191 156.288 230.023 156.283 229.498C156.279 229.129 155.901 228.899 155.62 228.66C154.84 227.996 154.637 226.901 154.314 225.93C153.686 224.059 152.476 222.438 150.86 221.301C150.641 221.13 150.39 221.006 150.122 220.937C149.851 220.898 149.576 220.913 149.312 220.981C148.564 221.131 145.771 221.647 146.299 222.732C146.526 223.2 147.368 223.686 147.721 224.123C148.132 224.638 148.491 225.193 148.793 225.779Z" fill="#575A89"/>
<path d="M163.61 220.848C163.46 221.163 163.293 221.469 163.11 221.766C162.492 222.782 161.764 223.73 161.189 224.77C160.801 225.406 160.562 226.12 160.489 226.861C160.456 227.231 160.513 227.604 160.654 227.947C160.796 228.291 161.018 228.596 161.302 228.836C161.921 229.305 162.769 229.326 163.537 229.217C164.306 229.108 165.07 228.888 165.845 228.946C165.584 227.472 166.83 226.175 167.141 224.71C167.229 224.299 167.242 223.873 167.359 223.469C167.485 223.1 167.647 222.743 167.841 222.405C168.462 221.199 168.9 219.909 169.143 218.575C169.172 218.414 165.355 218.387 164.997 218.464C163.88 218.705 164.043 219.923 163.61 220.848Z" fill="#575A89"/>
<path d="M134.191 197.689C133.101 199.391 133.352 201.646 134.118 203.515C134.883 205.384 136.101 207.037 136.935 208.877C137.466 210.05 137.839 211.293 138.437 212.434C139.179 213.846 140.261 215.09 140.758 216.605C141.075 217.571 141.148 218.629 141.661 219.507C141.972 219.976 142.326 220.414 142.719 220.816C143.825 222.081 144.656 223.561 145.158 225.163C145.627 223.768 147.032 222.853 148.476 222.551C149.919 222.25 151.415 222.455 152.875 222.66C152.061 221.401 151.238 220.126 150.753 218.708C150.283 217.336 150.144 215.877 149.828 214.462C149.179 211.561 147.794 208.885 146.422 206.246L153.473 205.688C154.624 205.573 155.781 205.53 156.938 205.56C158.758 205.646 160.541 206.091 162.351 206.297C164.162 206.502 166.077 206.449 167.69 205.604C164.605 210.021 162.999 215.298 163.1 220.681C163.79 220.147 164.59 219.775 165.442 219.59C166.295 219.406 167.178 219.414 168.027 219.614C168.876 219.813 169.669 220.2 170.349 220.746C171.029 221.291 171.578 221.981 171.956 222.766C174.719 218.998 174.391 213.752 176.58 209.625C177.031 208.777 177.582 207.986 178.068 207.158C178.987 205.493 179.773 203.76 180.42 201.973C181.032 200.41 181.649 198.67 181.062 197.098C180.818 196.501 180.463 195.956 180.015 195.491C178.751 194.101 176.993 193.073 175.113 193.03C172.227 192.965 169.842 195.099 167.311 196.484C164.288 198.086 160.87 198.794 157.458 198.522C153.98 198.277 150.659 197.141 147.346 196.14C145.688 195.617 144.004 195.183 142.299 194.841C140.878 194.576 139.525 194.87 138.125 195.233C136.6 195.627 135.068 196.319 134.191 197.689Z" fill="#2F2E41"/>
<path d="M164.302 166.628C164.3 168.529 163.542 170.352 162.195 171.697C160.848 173.041 159.021 173.797 157.115 173.799C156.687 173.799 156.259 173.761 155.838 173.684C154.493 173.441 153.246 172.821 152.241 171.897C151.237 170.972 150.518 169.78 150.168 168.462C149.819 167.143 149.853 165.753 150.267 164.453C150.682 163.154 151.459 161.999 152.508 161.125C153.556 160.25 154.833 159.692 156.189 159.517C157.544 159.341 158.921 159.554 160.159 160.132C161.397 160.709 162.445 161.627 163.178 162.778C163.912 163.928 164.302 165.264 164.302 166.628Z" fill="#FFB9B9"/>
<path d="M152.923 173.44C152.923 173.44 154.24 174.038 154.72 174.516C155.199 174.994 156.636 177.623 159.031 175.95C161.427 174.277 161.667 173.321 162.385 173.321C163.104 173.321 164.062 174.755 164.062 174.755L170.65 194.475C168.874 196.474 166.816 198.206 164.541 199.614C160.708 202.004 156.157 203.199 154.001 202.243C151.845 201.287 147.773 200.57 147.054 198.658C146.335 196.745 145.137 191.009 145.137 191.009L148.491 176.428L152.923 173.44Z" fill="#F2F2F2"/>
<path d="M151.998 193.384C152.52 192.259 152.596 190.985 152.64 189.745C152.711 188.517 152.678 187.286 152.543 186.063C152.33 184.464 151.809 182.924 151.479 181.345C151.19 179.96 151.05 178.548 151.06 177.134C151.065 176.488 151.112 175.809 151.464 175.268C151.71 174.89 152.095 174.598 152.249 174.174C152.55 173.344 151.805 172.475 150.99 172.133C149.996 171.761 148.909 171.718 147.889 172.009C146.876 172.301 145.899 172.7 144.972 173.199C144.271 173.498 143.626 173.914 143.066 174.429C142.322 175.197 141.995 176.266 141.731 177.301C141.52 178.129 141.332 178.992 141.493 179.832C141.754 181.195 142.868 182.22 143.461 183.475C144.151 184.932 144.104 186.631 143.83 188.219C143.556 189.807 143.069 191.36 142.919 192.964C142.769 194.569 142.999 196.293 144.007 197.553C144.417 198.066 145.531 199.283 146.282 199.145C146.873 199.037 147.729 197.74 148.205 197.329C149.579 196.141 151.209 195.085 151.998 193.384Z" fill="#2F2E41"/>
<path d="M164.549 172.66C164.57 173.994 163.981 175.261 163.288 176.401C162.596 177.541 161.782 178.62 161.272 179.852C160.637 181.394 160.508 183.097 160.902 184.718C161.048 185.27 161.224 185.813 161.43 186.346L162.743 189.938C162.919 190.503 163.175 191.04 163.504 191.533C163.8 191.91 164.149 192.244 164.538 192.526C165.535 193.329 166.682 193.926 167.913 194.282C169.152 194.636 170.475 194.561 171.666 194.069C171.792 189.199 172.576 184.368 173.997 179.707C174.259 178.847 174.546 177.941 174.344 177.065C174.117 176.083 173.327 175.346 172.576 174.673C170.278 172.615 167.752 170.452 164.677 170.175C162.897 170.014 164.534 171.697 164.549 172.66Z" fill="#2F2E41"/>
<path d="M148.828 200.451C149.01 200.807 149.124 201.195 149.304 201.552C149.57 202.03 149.899 202.471 150.281 202.863C151.883 204.635 153.841 206.401 156.23 206.508C156.468 206.53 156.707 206.5 156.931 206.419C157.133 206.316 157.307 206.165 157.437 205.98C157.567 205.794 157.65 205.58 157.678 205.355C157.847 204.429 157.437 203.506 157.027 202.658C156.139 200.822 155.139 198.938 153.475 197.754C152.644 197.186 151.695 196.813 150.699 196.664C149.703 196.514 148.686 196.592 147.725 196.891C146.858 197.157 145.421 197.622 146.568 198.411C147.439 199.01 148.324 199.466 148.828 200.451Z" fill="#FFB9B9"/>
<path d="M159.156 177.069C158.907 176.397 158.525 175.782 158.032 175.26C157.535 174.841 156.947 174.544 156.315 174.392C155.495 174.159 154.648 174.037 153.796 174.032C152.781 174.026 151.605 174.297 151.174 175.214C150.832 175.941 151.097 176.803 151.441 177.53C151.589 177.906 151.834 178.237 152.152 178.487C152.589 178.782 153.155 178.773 153.674 178.872C154.478 179.075 155.239 179.42 155.923 179.889L157.7 180.961L160.752 182.801C160.672 182.753 160.7 180.664 160.607 180.322C160.305 179.22 159.625 178.113 159.156 177.069Z" fill="#FFB9B9"/>
<path d="M150.265 229.377C149.551 230.345 149.694 231.73 149.062 232.753C148.513 233.64 147.48 234.105 146.794 234.891C146.575 235.152 146.38 235.432 146.211 235.728C145.575 236.791 145.058 238.154 145.684 239.223C146.188 240.083 147.248 240.42 148.22 240.649C149.448 240.938 150.724 241.17 151.966 240.949C153.209 240.727 154.423 239.968 154.866 238.789C154.953 238.493 155.057 238.201 155.176 237.916C155.85 236.593 157.962 236.579 158.651 235.264C159.133 234.344 158.69 233.232 158.247 232.293L156.893 229.423C156.444 228.471 154.623 229.019 153.674 228.79C152.436 228.493 151.156 228.165 150.265 229.377Z" fill="#2F2E41"/>
<path d="M160.735 226.912C160.18 227.347 159.757 227.927 159.51 228.586C158.84 230.128 158.61 231.819 158.387 233.485C158.259 234.147 158.246 234.827 158.348 235.494C158.637 236.854 159.872 237.856 161.202 238.272C162.532 238.688 163.958 238.624 165.35 238.556C165.799 238.567 166.245 238.477 166.654 238.292C167.354 237.907 167.627 237.002 167.507 236.214C167.387 235.426 166.956 234.724 166.533 234.048C166.111 233.371 165.679 232.67 165.558 231.883C165.355 230.557 165.929 228.612 165.113 227.412C164.295 226.211 161.826 226.149 160.735 226.912Z" fill="#2F2E41"/>
<path d="M164.121 162.891C163.993 162.462 163.711 162.095 163.33 161.86C163.349 161.401 163.293 160.941 163.163 160.5C162.727 159.216 161.696 159.29 160.724 158.722C160.302 158.476 160.328 158.258 160.108 157.854C159.82 157.324 159.389 156.885 158.863 156.587C158.239 156.19 157.58 155.781 156.842 155.731C155.29 155.626 154.101 157.082 152.618 157.549C151.964 157.755 151.262 157.764 150.605 157.958C149.948 158.153 149.292 158.618 149.194 159.295C149.149 159.608 149.229 159.928 149.183 160.241C149.092 160.862 148.546 161.297 148.18 161.807C147.372 162.937 147.464 164.533 148.111 165.762C148.247 166.016 148.403 166.259 148.577 166.489C148.631 167.07 148.798 167.635 149.069 168.152C149.715 169.381 150.828 170.299 151.99 171.062C151.894 170.655 151.837 170.239 151.817 169.821C151.801 169.682 151.819 169.541 151.87 169.41C151.999 169.14 152.341 169.068 152.602 168.92C153.142 168.614 153.354 167.937 153.369 167.317C153.385 166.698 153.253 166.077 153.318 165.461C153.321 165.319 153.353 165.18 153.413 165.051C153.473 164.922 153.559 164.808 153.666 164.715C153.866 164.601 154.093 164.547 154.323 164.559C155.429 164.514 156.585 164.493 157.561 163.971C157.875 163.763 158.214 163.592 158.568 163.463C159.398 163.247 160.245 163.827 160.723 164.537C161.201 165.246 161.44 166.091 161.881 166.825C162.322 167.558 163.083 168.212 163.936 168.125C163.984 168.125 164.031 168.115 164.075 168.096C164.119 168.076 164.158 168.048 164.191 168.012C164.227 167.946 164.244 167.871 164.237 167.795L164.285 164.543C164.325 163.987 164.269 163.428 164.121 162.891Z" fill="#2F2E41"/>
<path d="M141.378 179.901C140.692 180.911 139.901 181.881 139.524 183.041C139.303 183.723 139.234 184.444 139.074 185.142C138.539 187.469 136.996 189.536 136.841 191.918C136.787 192.448 136.865 192.982 137.068 193.474C137.511 194.435 138.57 194.941 139.581 195.26C140.591 195.578 141.677 195.808 142.483 196.494C142.89 196.882 143.258 197.308 143.583 197.766C144.899 199.4 146.67 200.608 148.673 201.241C148.514 200.153 148.44 198.842 149.311 198.17C149.783 197.806 150.413 197.741 151.007 197.69L153.814 197.448C151.943 195.636 149.88 194.033 147.661 192.665C146.885 192.187 146.04 191.682 145.686 190.843C145.503 190.303 145.427 189.732 145.462 189.163C145.443 187.08 145.266 185.001 144.934 182.945C144.703 181.517 144.397 180.102 144.047 178.698C143.948 178.304 143.368 176.537 142.653 176.95C142.485 177.048 142.327 178.169 142.229 178.402C141.995 178.928 141.71 179.43 141.378 179.901Z" fill="#2F2E41"/>
<path d="M173.705 176.087L174.851 178.465C175.404 179.444 175.655 180.562 175.574 181.682L175.642 188.817C175.695 189.77 175.616 190.726 175.407 191.658C175.335 191.965 175.201 192.254 175.012 192.507C174.817 192.724 174.588 192.908 174.334 193.052C172.164 194.404 169.351 195.173 167.06 194.039C166.535 193.76 166.036 193.435 165.568 193.068C164.655 192.393 163.728 191.705 163.044 190.798C162.329 189.85 161.919 188.714 161.438 187.629C160.575 185.681 159.459 183.855 158.12 182.197C157.898 181.978 157.753 181.693 157.709 181.385C157.694 180.759 158.438 180.451 159.018 180.213C160.008 179.807 160.943 179.022 161.108 177.966C163.215 180.723 165.539 183.635 168.863 184.642C168.915 184.675 168.975 184.694 169.037 184.696C169.099 184.698 169.16 184.683 169.214 184.653C169.268 184.623 169.313 184.579 169.344 184.526C169.375 184.472 169.392 184.411 169.391 184.35C169.579 183.562 169.646 182.751 169.784 181.953C170.037 180.499 170.525 179.097 171.228 177.799C171.621 177.071 172.896 174.408 173.705 176.087Z" fill="#2F2E41"/>
<path opacity="0.1" d="M145.262 182.965C145.293 184.654 144.934 186.327 144.211 187.854C144.023 188.192 143.885 188.554 143.8 188.931C143.674 189.735 144.133 190.513 144.656 191.136C145.69 192.361 147.03 193.292 148.541 193.832" fill="black"/>
<path opacity="0.1" d="M170.152 181.542C169.983 181.995 170.136 182.497 170.266 182.962C170.643 184.313 170.819 185.712 170.789 187.114C170.794 187.139 170.794 187.164 170.787 187.188C170.78 187.212 170.767 187.234 170.749 187.252C170.732 187.27 170.71 187.284 170.686 187.291C170.662 187.299 170.636 187.3 170.612 187.295C170.059 187.329 169.426 187.333 169.051 186.926" fill="black"/>
<path opacity="0.1" d="M264.114 249.108C284.723 249.108 301.43 245.536 301.43 241.129C301.43 236.723 284.723 233.15 264.114 233.15C243.505 233.15 226.798 236.723 226.798 241.129C226.798 245.536 243.505 249.108 264.114 249.108Z" fill="black"/>
<path d="M282.772 169.91L280.107 172.57L282.772 175.23L285.437 169.91H282.772Z" fill="#A0616A"/>
<path d="M283.372 146.848C284.12 147.154 284.476 147.989 284.758 148.745L288.215 158.015L288.888 159.82C289.219 160.705 289.549 161.59 289.828 162.493C290.004 163.063 290.16 163.64 290.295 164.222C290.436 164.721 290.49 165.239 290.455 165.756C290.361 166.324 290.154 166.867 289.844 167.353C288.641 169.444 286.928 171.197 284.864 172.45C284.745 171.683 284.435 170.959 283.963 170.343C283.491 169.726 282.871 169.238 282.161 168.923L283.949 167.941C284.327 167.764 284.667 167.516 284.951 167.209C285.124 166.97 285.247 166.699 285.313 166.411C285.378 166.124 285.385 165.826 285.333 165.536C285.226 164.956 285.048 164.393 284.803 163.857C284.203 162.363 283.682 160.838 283.243 159.29C282.983 158.374 282.745 157.432 282.23 156.631C281.763 155.904 281.087 155.322 280.663 154.569C280.017 153.422 280.033 152.01 280.319 150.725C280.56 149.64 280.964 148.596 281.304 147.54C281.571 146.71 282.571 146.521 283.372 146.848Z" fill="#D0CDE1"/>
<path d="M266.887 122.079C265.512 122.543 264.267 123.626 263.985 125.047C263.855 125.705 263.935 126.39 263.825 127.052C263.57 128.588 262.362 129.761 261.248 130.85C260.134 131.939 258.983 133.205 258.901 134.76C258.812 136.462 260.05 138.057 259.836 139.748C259.587 141.713 257.507 142.986 256.993 144.899C256.65 146.176 257.07 147.552 257.763 148.68C259.081 150.829 261.336 152.287 263.736 153.07C266.137 153.852 268.694 154.016 271.219 154.043C274.294 154.075 277.633 153.811 279.943 151.786C281.262 150.619 282.091 148.998 282.263 147.247C282.482 144.901 281.501 142.477 282.178 140.22C282.604 138.8 283.672 137.503 283.513 136.029C283.357 134.588 282.095 133.566 281.23 132.402C280.422 131.315 279.931 130.031 279.451 128.765L277.807 124.434C277.483 123.583 277.129 122.688 276.408 122.129C275.06 121.083 272.891 121.288 271.315 121.504C269.852 121.704 268.294 121.605 266.887 122.079Z" fill="#2F2E41"/>
<path d="M268.159 136.351C268.159 136.351 268.32 141.169 267.837 141.651C267.355 142.133 269.769 145.344 269.769 145.344L274.114 145.184L276.367 143.417L274.436 140.848C274.436 140.848 273.631 136.673 274.275 135.709C274.919 134.746 268.159 136.351 268.159 136.351Z" fill="#A0616A"/>
<path opacity="0.1" d="M268.159 136.351C268.159 136.351 268.32 141.169 267.837 141.651C267.355 142.133 269.769 145.344 269.769 145.344L274.114 145.184L276.367 143.417L274.436 140.848C274.436 140.848 273.631 136.673 274.275 135.709C274.919 134.746 268.159 136.351 268.159 136.351Z" fill="black"/>
<path d="M258.101 173.527L260.837 179.63L262.929 177.06L258.744 171.6L258.101 173.527Z" fill="#A0616A"/>
<path d="M250.778 234.63L249.652 240.893L247.72 243.623L248.847 244.266L250.778 243.944L253.031 243.141L253.997 239.448L255.767 234.63H250.778Z" fill="#A0616A"/>
<path d="M271.378 230.776L270.734 239.769L272.343 241.054L274.919 238.806V232.222L271.378 230.776Z" fill="#A0616A"/>
<path d="M270.815 138.198C274.014 138.198 276.608 135.61 276.608 132.417C276.608 129.224 274.014 126.636 270.815 126.636C267.615 126.636 265.021 129.224 265.021 132.417C265.021 135.61 267.615 138.198 270.815 138.198Z" fill="#A0616A"/>
<path d="M275.285 140.193C275.112 140.109 274.922 140.064 274.73 140.061C274.537 140.057 274.346 140.095 274.169 140.171C273.818 140.327 273.476 140.504 273.148 140.703C272.302 141.142 271.343 141.316 270.397 141.202C270.286 141.193 270.177 141.165 270.076 141.119C269.968 141.052 269.869 140.973 269.781 140.882C269.438 140.604 269 140.469 268.559 140.507C268.119 140.545 267.711 140.752 267.42 141.085C267.25 141.297 267.134 141.549 266.948 141.747C266.467 142.26 265.673 142.281 264.969 142.28C263.509 142.239 262.05 142.373 260.622 142.678C259.187 142.986 257.866 143.685 256.804 144.696C256.514 144.968 256.284 145.296 256.126 145.661C255.932 146.16 255.957 146.722 255.783 147.229C255.589 147.793 255.158 148.256 254.984 148.827C254.852 149.257 254.871 149.736 254.651 150.128C255.592 150.94 256.388 152.024 257.329 152.836C257.952 153.374 258.604 153.956 258.838 154.744C258.943 155.229 258.99 155.726 258.977 156.223C259.093 158.598 260.384 160.753 261.828 162.645C262.224 163.206 262.698 163.709 263.235 164.137C263.965 164.633 264.794 164.965 265.664 165.11C267.308 165.446 269.001 165.444 270.679 165.427C272.413 165.41 274.178 165.373 275.826 164.836C276.665 164.602 277.42 164.134 278.002 163.488C278.68 162.657 278.945 161.454 279.87 160.91C280.094 160.808 280.306 160.681 280.503 160.533C280.691 160.329 280.824 160.081 280.89 159.811C281.214 158.802 281.392 157.753 281.42 156.694C281.396 156.059 281.439 155.423 281.549 154.797C281.709 154.245 281.942 153.717 282.242 153.226L284.159 149.757C284.315 149.475 284.274 149.06 284.288 148.739C284.274 148.275 284.131 147.824 283.876 147.436C282.633 145.243 280.679 143.537 278.337 142.598C278.152 142.535 277.976 142.449 277.813 142.342C277.622 142.181 277.46 141.988 277.334 141.772C276.826 141.007 276.204 140.145 275.285 140.193Z" fill="#D0CDE1"/>
<path d="M251.393 159.087C251.015 160.004 250.737 160.959 250.565 161.936C250.38 163.285 250.598 164.659 251.192 165.885C252.225 168.007 254.259 169.446 255.694 171.321C257.028 173.062 257.822 175.15 258.977 177.014C258.776 176.54 259.021 175.99 259.35 175.593C259.68 175.196 260.101 174.867 260.343 174.412C260.507 174.059 260.611 173.681 260.649 173.294C260.821 172.138 260.914 170.882 260.323 169.872C259.879 169.112 259.111 168.608 258.503 167.971C257.894 167.322 257.447 166.541 257.198 165.688C256.948 164.836 256.902 163.937 257.064 163.064C257.181 162.463 257.397 161.886 257.558 161.295C257.758 160.501 257.909 159.696 258.01 158.884L258.735 153.917C258.928 152.596 259.091 151.134 258.341 150.028C258.195 149.797 257.993 149.606 257.753 149.473C257.555 149.383 257.343 149.323 257.127 149.297C256.338 149.169 255.27 148.824 254.885 149.667C254.42 150.685 254.096 151.795 253.707 152.844L251.393 159.087Z" fill="#D0CDE1"/>
<path d="M279.014 161.804C279.014 161.804 269.447 163.651 267.194 163.651H263.17C263.17 163.651 261.722 166.221 261.722 168.79C261.722 171.359 252.226 207.331 252.226 207.331C252.226 207.331 243.214 236.879 253.192 237.039C263.17 237.2 269.447 237.682 269.608 234.309C269.769 230.937 270.734 187.418 270.734 187.418L272.236 209.795C272.64 215.335 272.209 220.904 270.957 226.316C270.237 229.35 270.349 232.677 273.953 233.346C280.873 234.63 289.564 233.506 289.564 231.098C289.564 228.689 285.058 175.213 285.058 175.213C285.058 175.213 282.804 167.345 281.517 166.702C280.229 166.06 279.014 161.804 279.014 161.804Z" fill="#2F2E41"/>
<path d="M249.008 243.302L252.548 242.017L254.962 235.915L257.537 235.594C257.537 235.594 256.089 238.645 255.284 239.127C254.48 239.609 253.192 243.623 253.192 243.623C253.192 243.623 253.836 245.229 250.778 245.871C247.72 246.514 245.467 246.996 245.467 246.996C245.467 246.996 245.145 246.353 246.594 244.747C248.042 243.142 249.733 240.438 249.733 240.438L249.008 243.302Z" fill="#2F2E41"/>
<path d="M270.734 235.915L270.09 240.733C270.09 240.733 271.861 243.302 272.344 243.302C272.826 243.302 275.401 241.054 275.401 241.054C275.401 241.054 275.24 238.645 275.401 238.003C275.562 237.36 275.884 234.309 275.401 234.149C274.919 233.988 274.919 237.728 274.919 237.728L272.826 239.93L270.809 238.723L270.734 235.915Z" fill="#2F2E41"/>
<path d="M271.298 132.417C274.764 132.417 277.574 130.907 277.574 129.045C277.574 127.182 274.764 125.672 271.298 125.672C267.831 125.672 265.021 127.182 265.021 129.045C265.021 130.907 267.831 132.417 271.298 132.417Z" fill="#2F2E41"/>
<path d="M43 195.224C43 214.142 54.8938 229.449 69.5923 229.449L43 195.224Z" fill="#3F3D56"/>
<path d="M69.5923 229.449C69.5923 210.319 82.8651 194.839 99.2677 194.839L69.5923 229.449Z" fill="#0AAE94"/>
<path d="M52.6349 196.939C52.6349 214.909 60.2194 229.449 69.5923 229.449L52.6349 196.939Z" fill="#0AAE94"/>
<path d="M69.5923 229.449C69.5923 205.005 84.9336 185.225 103.892 185.225L69.5923 229.449Z" fill="#3F3D56"/>
<path d="M63.998 229.691C63.998 229.691 67.7692 229.575 68.9057 228.767C70.0423 227.96 74.7068 226.995 74.9888 228.291C75.2707 229.586 80.6562 234.732 76.3985 234.766C72.1408 234.801 66.5055 234.105 65.3712 233.415C64.2368 232.726 63.998 229.691 63.998 229.691Z" fill="#A8A8A8"/>
<path opacity="0.2" d="M76.4745 234.316C72.2168 234.35 66.5815 233.654 65.4472 232.964C64.5833 232.439 64.239 230.555 64.1239 229.686C64.0441 229.689 63.998 229.691 63.998 229.691C63.998 229.691 64.2368 232.726 65.3712 233.415C66.5056 234.105 72.1408 234.801 76.3985 234.766C77.6276 234.756 78.0521 234.32 78.0288 233.674C77.858 234.064 77.3893 234.308 76.4745 234.316Z" fill="black"/>
</g>
</g>
<defs>
<filter id="filter0_d_0_3" x="-10" y="-6" width="413" height="347" filterUnits="userSpaceOnUse" color-interpolation-filters="sRGB">
<feFlood flood-opacity="0" result="BackgroundImageFix"/>
<feColorMatrix in="SourceAlpha" type="matrix" values="0 0 0 0 0 0 0 0 0 0 0 0 0 0 0 0 0 0 127 0" result="hardAlpha"/>
<feOffset dy="4"/>
<feGaussianBlur stdDeviation="5"/>
<feColorMatrix type="matrix" values="0 0 0 0 0.913725 0 0 0 0 0.94902 0 0 0 0 0.996078 0 0 0 0.4 0"/>
<feBlend mode="normal" in2="BackgroundImageFix" result="effect1_dropShadow_0_3"/>
<feBlend mode="normal" in="SourceGraphic" in2="effect1_dropShadow_0_3" result="shape"/>
</filter>
<clipPath id="clip0_0_3">
<rect width="393" height="327" fill="white"/>
</clipPath>
<clipPath id="clip1_0_3">
<rect width="307" height="224" fill="white" transform="translate(43 52)"/>
</clipPath>
</defs>
</svg>
