<svg width="252" height="167" viewBox="0 0 252 167" fill="none" xmlns="http://www.w3.org/2000/svg">
<g clip-path="url(#clip0_383_180)">
<path d="M132.967 70.8143C120.071 77.0048 109.075 87.3435 102.325 99.9524C100.866 102.678 99.6233 105.57 99.0814 108.628C98.5391 111.687 98.9179 114.599 99.9657 117.505C100.924 120.161 102.212 122.767 102.506 125.61C102.815 128.605 101.71 131.406 99.7201 133.63C97.2856 136.35 94.0161 138.035 90.7614 139.573C87.1477 141.28 83.3671 142.996 80.8075 146.182C80.4974 146.568 79.9149 146.066 80.2245 145.68C84.6777 140.137 92.3003 139.095 97.5863 134.629C100.053 132.546 101.905 129.708 101.788 126.384C101.685 123.476 100.359 120.788 99.366 118.106C98.3232 115.291 97.8031 112.461 98.1771 109.459C98.5596 106.389 99.6913 103.442 101.074 100.691C104.194 94.4862 108.462 88.7898 113.352 83.8655C118.972 78.2053 125.522 73.5454 132.717 70.0875C133.163 69.8737 133.409 70.6018 132.967 70.8143Z" fill="white"/>
<path d="M104.302 95.7385C102.325 94.2971 100.927 92.2018 100.356 89.8269C99.7852 87.452 100.08 84.9521 101.187 82.7737C101.412 82.3336 102.108 82.6624 101.883 83.103C100.848 85.1297 100.574 87.4583 101.11 89.6688C101.646 91.8792 102.957 93.8258 104.806 95.1571C105.207 95.4469 104.701 96.0267 104.302 95.7385Z" fill="white"/>
<path d="M99.302 116.222C104.256 115.5 108.755 112.943 111.902 109.06C112.213 108.675 112.796 109.178 112.485 109.562C109.202 113.596 104.515 116.248 99.3584 116.988C98.8669 117.058 98.8132 116.292 99.302 116.222V116.222Z" fill="white"/>
<path d="M119.352 79.1503C120.001 79.867 120.817 80.4119 121.729 80.736C122.641 81.0601 123.619 81.1534 124.576 81.0074C125.066 80.931 125.12 81.6975 124.632 81.7733C123.574 81.9297 122.494 81.8254 121.486 81.4696C120.478 81.1137 119.573 80.517 118.849 79.7317C118.775 79.6634 118.729 79.5694 118.722 79.4688C118.714 79.3682 118.746 79.2685 118.809 79.1901C118.876 79.1135 118.971 79.0663 119.073 79.0588C119.174 79.0514 119.275 79.0843 119.352 79.1503Z" fill="white"/>
<path d="M167.44 118.548C153.406 115.748 138.385 117.402 125.382 123.417C122.571 124.717 119.833 126.28 117.554 128.396C115.274 130.513 113.818 133.066 112.901 136.015C112.062 138.711 111.517 141.565 110.035 144.011C108.474 146.589 105.9 148.162 102.969 148.742C99.3828 149.452 95.7547 148.835 92.2277 148.109C88.3116 147.302 84.2569 146.402 80.2896 147.41C79.8089 147.532 79.6471 146.781 80.1271 146.659C87.0295 144.907 93.7449 148.651 100.661 148.259C103.889 148.076 107.081 146.923 108.995 144.198C110.668 141.815 111.233 138.872 112.059 136.135C112.926 133.261 114.219 130.689 116.33 128.517C118.49 126.295 121.172 124.622 123.938 123.255C130.174 120.174 137.022 118.188 143.899 117.192C151.804 116.047 159.847 116.259 167.68 117.818C168.165 117.915 167.922 118.644 167.44 118.548V118.548Z" fill="white"/>
<path d="M129.505 121.239C128.797 118.901 128.945 116.389 129.923 114.15C130.902 111.911 132.646 110.092 134.845 109.017C135.291 108.801 135.648 109.481 135.202 109.698C133.152 110.695 131.528 112.39 130.621 114.476C129.714 116.563 129.586 118.904 130.258 121.077C130.404 121.55 129.65 121.709 129.505 121.239Z" fill="white"/>
<path d="M113.145 134.592C117.537 136.99 122.673 137.649 127.529 136.438C128.011 136.318 128.173 137.069 127.692 137.189C122.635 138.439 117.292 137.743 112.728 135.237C112.293 134.998 112.713 134.354 113.145 134.592Z" fill="white"/>
<path d="M151.537 117.03C151.622 117.992 151.945 118.917 152.478 119.723C153.01 120.529 153.735 121.191 154.587 121.649C155.024 121.882 154.604 122.526 154.169 122.294C153.23 121.784 152.431 121.052 151.841 120.163C151.251 119.274 150.888 118.254 150.784 117.192C150.766 117.093 150.787 116.991 150.841 116.906C150.896 116.821 150.981 116.76 151.079 116.736C151.179 116.715 151.283 116.734 151.369 116.789C151.455 116.844 151.515 116.931 151.537 117.03Z" fill="white"/>
<path d="M117.507 136.197C113.822 118.427 109.215 112.503 109.215 112.503L107.455 111.142L105.338 109.502L105.348 109.291L104.846 109.121L104.728 109.03L104.535 108.882L104.504 108.915L104.438 108.983L94.861 105.737L82.7105 101.621L77.084 94.3283C76.1676 93.1406 74.9879 92.1807 73.6372 91.5237C72.2865 90.8667 70.8016 90.5306 69.2989 90.5417L51.3297 90.6743C48.9 90.6922 46.565 91.6158 44.7836 93.2635L32.9727 104.188L14.5691 112.953L14.538 112.922L14.3448 113.06L11.5012 114.415L11.6186 115.024L9.85861 116.291C9.85861 116.291 5.25168 121.804 1.56612 138.338C0.62855 142.546 0.167046 151.571 0.00046812 162.692C-0.00789909 163.255 0.0959759 163.813 0.306051 164.335C0.516125 164.858 0.82821 165.333 1.22416 165.734C1.62011 166.135 2.09202 166.453 2.61245 166.67C3.13289 166.888 3.69147 167 4.25571 167H102.553V167H114.822C115.386 167 115.944 166.888 116.464 166.671C116.984 166.454 117.456 166.136 117.852 165.735C118.248 165.335 118.56 164.86 118.77 164.338C118.98 163.817 119.085 163.259 119.077 162.696C118.914 150.595 118.453 140.76 117.507 136.197Z" fill="#3F3D56"/>
<path d="M63.1361 83.8101C76.1377 83.8101 86.6776 73.2999 86.6776 60.3349C86.6776 47.37 76.1377 36.8598 63.1361 36.8598C50.1346 36.8598 39.5947 47.37 39.5947 60.3349C39.5947 73.2999 50.1346 83.8101 63.1361 83.8101Z" fill="#9E616A"/>
<path d="M57.1139 82.6606C57.0133 82.4398 56.913 82.2182 56.813 81.9959C56.8515 81.9971 56.8897 82.0027 56.9282 82.0037L57.1139 82.6606Z" fill="#2F2E41"/>
<path d="M38.9401 37.9273C40.1308 36.9802 41.5224 36.1087 43.0447 36.1577C44.5669 36.2066 46.1107 37.5777 45.7953 39.0635C48.5914 34.1267 53.042 30.3297 58.3659 28.339C63.6897 26.3483 69.5467 26.2911 74.9086 28.1776C78.6921 29.5087 82.4024 32.1716 83.2715 36.0774C83.4947 37.08 83.5426 38.1794 84.1703 38.9936C84.9619 40.0201 86.4763 40.2523 87.7234 39.8912C87.7359 39.8876 87.7483 39.8839 87.7607 39.8802C87.9714 39.8085 88.1988 39.8014 88.4135 39.86C88.6283 39.9185 88.8204 40.04 88.9652 40.2086C89.11 40.3772 89.2006 40.5853 89.2255 40.8059C89.2504 41.0265 89.2083 41.2495 89.1047 41.446L88.0342 43.4369C89.3837 43.7369 90.7859 43.7071 92.1214 43.3502C92.3432 43.2922 92.5776 43.304 92.7924 43.3841C93.0073 43.4642 93.192 43.6086 93.3213 43.7975C93.4506 43.9864 93.518 44.2106 93.5145 44.4393C93.511 44.668 93.4365 44.89 93.3015 45.0748C89.7715 49.9076 83.8741 53.0284 77.8559 52.9917C73.5785 52.9657 69.2571 51.4957 65.0943 52.4765C63.4838 52.856 61.979 53.5902 60.6902 54.6252C59.4014 55.6602 58.3614 56.9699 57.6464 58.458C56.9313 59.9461 56.5595 61.575 56.5581 63.2252C56.5568 64.8753 56.9259 66.5048 57.6384 67.9941C56.3596 66.5993 53.8875 66.9295 52.5793 68.2971C51.2712 69.6647 50.9325 71.706 51.0643 73.5914C51.2659 76.475 52.3989 79.1922 53.5933 81.8368C43.5791 81.5224 34.1072 74.5173 30.919 65.0428C27.7174 55.5286 31.0728 44.1857 38.9401 37.9273Z" fill="#2F2E41"/>
<path opacity="0.2" d="M23.1709 130.832L29.7737 166.656L33.7356 167L23.1709 130.832Z" fill="black"/>
<path opacity="0.2" d="M95.9023 128.131L89.2995 166.63L85.3376 167L95.9023 128.131Z" fill="black"/>
<path d="M44.5718 25.871C43.3058 26.3981 41.9848 25.8204 41.4308 24.4974C40.8683 23.1541 41.3937 21.7905 42.68 21.2549C43.9664 20.7193 45.2639 21.2984 45.8354 22.6633C46.3984 24.0078 45.8788 25.3268 44.5718 25.871ZM42.1467 18.611L41.1401 19.0301C40.8886 19.1336 40.6074 19.1392 40.352 19.0458C40.0966 18.9523 39.8857 18.7668 39.7609 18.5257L39.7111 18.4286C38.628 16.4807 38.504 14.1134 39.3445 11.3961C40.1231 8.95845 40.4465 7.2441 39.7961 5.69098C39.0442 3.89529 37.4385 3.33279 35.3909 4.14764C34.5968 4.47831 34.3441 4.47304 33.7191 5.09126C33.5832 5.22737 33.4212 5.33479 33.2427 5.40711C33.0642 5.47943 32.873 5.51518 32.6803 5.51221C32.4941 5.51002 32.3103 5.47046 32.1397 5.39589C31.9692 5.32132 31.8154 5.21326 31.6876 5.07817C31.4415 4.81782 31.3036 4.47402 31.3018 4.11621C31.3 3.7584 31.4344 3.41323 31.6779 3.15041C32.7283 2.05389 33.9953 1.18641 35.3989 0.6027C39.7982 -1.22915 42.0129 1.47531 43.0264 3.89555C44.0176 6.26283 43.46 8.45926 42.5641 11.3039C41.8132 13.6675 41.857 15.419 42.7099 17.1605C42.7714 17.2922 42.8057 17.4349 42.8106 17.5801C42.8155 17.7253 42.7909 17.8699 42.7383 18.0054C42.6857 18.1409 42.6062 18.2644 42.5045 18.3684C42.4029 18.4725 42.2812 18.555 42.1467 18.611L42.1467 18.611Z" fill="#6C63FF"/>
<path d="M114.252 76C112.063 76 109.964 76.8429 108.417 78.3431C106.869 79.8434 106 81.8783 106 84C106 86.1217 106.869 88.1566 108.417 89.6569C109.964 91.1571 112.063 92 114.252 92H175.748C177.937 92 180.036 91.1571 181.583 89.6569C183.131 88.1566 184 86.1217 184 84C184 81.8783 183.131 79.8434 181.583 78.3431C180.036 76.8429 177.937 76 175.748 76H114.252Z" fill="#E5E5E5"/>
<path d="M114.252 77.619C112.506 77.619 110.832 78.2913 109.598 79.488C108.363 80.6846 107.67 82.3077 107.67 84C107.67 85.6923 108.363 87.3154 109.598 88.512C110.832 89.7087 112.506 90.381 114.252 90.381H175.748C177.494 90.381 179.168 89.7087 180.402 88.512C181.637 87.3154 182.33 85.6923 182.33 84C182.33 82.3077 181.637 80.6846 180.402 79.488C179.168 78.2913 177.494 77.619 175.748 77.619H114.252Z" fill="white"/>
<path d="M127.836 87.8155H115.6C115.561 87.8157 115.523 87.8085 115.487 87.7943C115.451 87.78 115.418 87.759 115.39 87.7325C115.363 87.7059 115.341 87.6743 115.326 87.6395C115.311 87.6047 115.303 87.5674 115.303 87.5297C115.303 87.4921 115.311 87.4547 115.326 87.4199C115.341 87.3852 115.363 87.3536 115.39 87.327C115.418 87.3005 115.451 87.2795 115.487 87.2652C115.523 87.251 115.561 87.2438 115.6 87.244H127.836C127.913 87.2445 127.988 87.2749 128.043 87.3284C128.098 87.3819 128.128 87.4543 128.128 87.5297C128.128 87.6052 128.098 87.6776 128.043 87.7311C127.988 87.7846 127.913 87.8149 127.836 87.8155Z" fill="#6C63FF"/>
<path d="M143.357 87.9107H131.122C131.083 87.911 131.044 87.9038 131.008 87.8895C130.972 87.8753 130.939 87.8543 130.912 87.8277C130.884 87.8012 130.862 87.7696 130.847 87.7348C130.833 87.7 130.825 87.6627 130.825 87.625C130.825 87.5873 130.833 87.55 130.847 87.5152C130.862 87.4804 130.884 87.4488 130.912 87.4223C130.939 87.3957 130.972 87.3747 131.008 87.3605C131.044 87.3462 131.083 87.339 131.122 87.3393H143.357C143.396 87.339 143.434 87.3462 143.47 87.3605C143.506 87.3747 143.539 87.3957 143.567 87.4223C143.594 87.4488 143.616 87.4804 143.631 87.5152C143.646 87.55 143.654 87.5873 143.654 87.625C143.654 87.6627 143.646 87.7 143.631 87.7348C143.616 87.7696 143.594 87.8012 143.567 87.8277C143.539 87.8543 143.506 87.8753 143.47 87.8895C143.434 87.9038 143.396 87.911 143.357 87.9107Z" fill="#6C63FF"/>
<path d="M158.879 88.0059H146.643C146.565 88.0054 146.491 87.9751 146.436 87.9216C146.381 87.868 146.35 87.7957 146.35 87.7202C146.35 87.6448 146.381 87.5724 146.436 87.5189C146.491 87.4653 146.565 87.435 146.643 87.4345H158.879C158.917 87.4342 158.956 87.4414 158.992 87.4557C159.028 87.4699 159.061 87.4909 159.088 87.5175C159.116 87.544 159.138 87.5756 159.153 87.6104C159.168 87.6452 159.175 87.6825 159.175 87.7202C159.175 87.7579 159.168 87.7952 159.153 87.83C159.138 87.8648 159.116 87.8964 159.088 87.9229C159.061 87.9495 159.028 87.9705 158.992 87.9847C158.956 87.999 158.917 88.0062 158.879 88.0059H158.879Z" fill="#6C63FF"/>
<path d="M174.4 88.1012H162.164C162.087 88.1007 162.012 88.0703 161.957 88.0168C161.902 87.9633 161.872 87.8909 161.872 87.8155C161.872 87.74 161.902 87.6676 161.957 87.6141C162.012 87.5606 162.087 87.5303 162.164 87.5297H174.4C174.478 87.5303 174.552 87.5606 174.607 87.6141C174.662 87.6676 174.693 87.74 174.693 87.8155C174.693 87.8909 174.662 87.9633 174.607 88.0168C174.552 88.0703 174.478 88.1007 174.4 88.1012Z" fill="#6C63FF"/>
<path d="M121.691 85.186C122.947 85.186 123.965 84.1989 123.965 82.9814C123.965 81.7638 122.947 80.7767 121.691 80.7767C120.435 80.7767 119.417 81.7638 119.417 82.9814C119.417 84.1989 120.435 85.186 121.691 85.186Z" fill="#6C63FF"/>
<path d="M137.306 85.186C138.562 85.186 139.58 84.1989 139.58 82.9814C139.58 81.7638 138.562 80.7767 137.306 80.7767C136.05 80.7767 135.032 81.7638 135.032 82.9814C135.032 84.1989 136.05 85.186 137.306 85.186Z" fill="#6C63FF"/>
<path d="M152.921 85.186C154.177 85.186 155.195 84.1989 155.195 82.9814C155.195 81.7638 154.177 80.7767 152.921 80.7767C151.665 80.7767 150.647 81.7638 150.647 82.9814C150.647 84.1989 151.665 85.186 152.921 85.186Z" fill="#6C63FF"/>
<path d="M168.537 85.186C169.792 85.186 170.811 84.1989 170.811 82.9814C170.811 81.7638 169.792 80.7767 168.537 80.7767C167.281 80.7767 166.262 81.7638 166.262 82.9814C166.262 84.1989 167.281 85.186 168.537 85.186Z" fill="#6C63FF"/>
</g>
<defs>
<clipPath id="clip0_383_180">
<rect width="252" height="167" fill="white"/>
</clipPath>
</defs>
</svg>
