<svg width="16" height="12" viewBox="0 0 16 12" fill="none" xmlns="http://www.w3.org/2000/svg">
<path d="M10 4.5C10 4.36739 10.0527 4.24021 10.1464 4.14645C10.2402 4.05268 10.3674 4 10.5 4H13.5C13.6326 4 13.7598 4.05268 13.8536 4.14645C13.9473 4.24021 14 4.36739 14 4.5C14 4.63261 13.9473 4.75979 13.8536 4.85355C13.7598 4.94732 13.6326 5 13.5 5H10.5C10.3674 5 10.2402 4.94732 10.1464 4.85355C10.0527 4.75979 10 4.63261 10 4.5ZM10 7.5C10 7.36739 10.0527 7.24021 10.1464 7.14645C10.2402 7.05268 10.3674 7 10.5 7H13.5C13.6326 7 13.7598 7.05268 13.8536 7.14645C13.9473 7.24021 14 7.36739 14 7.5C14 7.63261 13.9473 7.75979 13.8536 7.85355C13.7598 7.94732 13.6326 8 13.5 8H10.5C10.3674 8 10.2402 7.94732 10.1464 7.85355C10.0527 7.75979 10 7.63261 10 7.5ZM2 6.75C2 6.55109 2.07902 6.36032 2.21967 6.21967C2.36032 6.07902 2.55109 6 2.75 6H5.75C5.84853 5.99987 5.94612 6.01918 6.03717 6.05682C6.12822 6.09447 6.21095 6.14971 6.28062 6.21938C6.35029 6.28905 6.40553 6.37178 6.44318 6.46283C6.48082 6.55388 6.50013 6.65147 6.5 6.75V7.5C6.5 7.5 6.5 7.523 6.496 7.565C6.45163 7.92293 6.27464 8.25121 6 8.485C5.675 8.767 5.137 9 4.25 9C2 9 2 7.5 2 7.5V6.75ZM4.25 5C4.58152 5 4.89946 4.8683 5.13388 4.63388C5.3683 4.39946 5.5 4.08152 5.5 3.75C5.5 3.41848 5.3683 3.10054 5.13388 2.86612C4.89946 2.6317 4.58152 2.5 4.25 2.5C3.91848 2.5 3.60054 2.6317 3.36612 2.86612C3.1317 3.10054 3 3.41848 3 3.75C3 4.08152 3.1317 4.39946 3.36612 4.63388C3.60054 4.8683 3.91848 5 4.25 5ZM8.5 4C8.5 4.26522 8.39464 4.51957 8.20711 4.70711C8.01957 4.89464 7.76522 5 7.5 5C7.23478 5 6.98043 4.89464 6.79289 4.70711C6.60536 4.51957 6.5 4.26522 6.5 4C6.5 3.73478 6.60536 3.48043 6.79289 3.29289C6.98043 3.10536 7.23478 3 7.5 3C7.76522 3 8.01957 3.10536 8.20711 3.29289C8.39464 3.48043 8.5 3.73478 8.5 4ZM7.435 7.977C7.397 8.127 7.336 8.308 7.238 8.5H7.5C7.89782 8.5 8.27936 8.34196 8.56066 8.06066C8.84196 7.77936 9 7.39782 9 7C9 6.73478 8.89464 6.48043 8.70711 6.29289C8.51957 6.10536 8.26522 6 8 6H7.332C7.44 6.227 7.5 6.482 7.5 6.75V7.538L7.498 7.567C7.48963 7.70531 7.46854 7.84256 7.435 7.977ZM2.5 0C1.83696 0 1.20107 0.263392 0.732233 0.732233C0.263392 1.20107 0 1.83696 0 2.5V9.5C0 10.163 0.263392 10.7989 0.732233 11.2678C1.20107 11.7366 1.83696 12 2.5 12H13.5C14.163 12 14.7989 11.7366 15.2678 11.2678C15.7366 10.7989 16 10.163 16 9.5V2.5C16 1.83696 15.7366 1.20107 15.2678 0.732233C14.7989 0.263392 14.163 0 13.5 0H2.5ZM1 2.5C1 2.10218 1.15804 1.72064 1.43934 1.43934C1.72064 1.15804 2.10218 1 2.5 1H13.5C13.8978 1 14.2794 1.15804 14.5607 1.43934C14.842 1.72064 15 2.10218 15 2.5V9.5C15 9.89782 14.842 10.2794 14.5607 10.5607C14.2794 10.842 13.8978 11 13.5 11H2.5C2.10218 11 1.72064 10.842 1.43934 10.5607C1.15804 10.2794 1 9.89782 1 9.5V2.5Z" fill="black"/>
</svg>
